<?xml version="1.0" encoding="utf-8" standalone="no"?>
<!DOCTYPE svg PUBLIC "-//W3C//DTD SVG 1.1//EN"
  "http://www.w3.org/Graphics/SVG/1.1/DTD/svg11.dtd">
<svg xmlns:xlink="http://www.w3.org/1999/xlink" width="935.704573pt" height="450.9pt" viewBox="0 0 935.704573 450.9" xmlns="http://www.w3.org/2000/svg" version="1.1">
 <metadata>
  <rdf:RDF xmlns:dc="http://purl.org/dc/elements/1.1/" xmlns:cc="http://creativecommons.org/ns#" xmlns:rdf="http://www.w3.org/1999/02/22-rdf-syntax-ns#">
   <cc:Work>
    <dc:type rdf:resource="http://purl.org/dc/dcmitype/StillImage"/>
    <dc:date>2026-05-31T01:09:24.644017</dc:date>
    <dc:format>image/svg+xml</dc:format>
    <dc:creator>
     <cc:Agent>
      <dc:title>Matplotlib v3.10.9, https://matplotlib.org/</dc:title>
     </cc:Agent>
    </dc:creator>
   </cc:Work>
  </rdf:RDF>
 </metadata>
 <defs>
  <style type="text/css">*{stroke-linejoin: round; stroke-linecap: butt}</style>
 </defs>
 <g id="figure_1">
  <g id="patch_1">
   <path d="M 0 450.9 
L 935.704573 450.9 
L 935.704573 0 
L 0 0 
L 0 450.9 
z
" style="fill: none"/>
  </g>
  <g id="axes_1">
   <g id="line2d_1">
    <path d="M 112.74 351.18 
L 184.74 351.18 
L 184.74 279.18 
L 112.74 279.18 
L 112.74 351.18 
" clip-path="url(#p578e5bad34)" style="fill: none; stroke: #000000; stroke-width: 2; stroke-linecap: round"/>
   </g>
   <g id="line2d_2">
    <path d="M 112.74 305.1 
L 94.74 305.1 
" clip-path="url(#p578e5bad34)" style="fill: none; stroke: #000000; stroke-width: 2; stroke-linecap: round"/>
   </g>
   <g id="line2d_3">
    <path d="M 112.74 325.26 
L 94.74 325.26 
" clip-path="url(#p578e5bad34)" style="fill: none; stroke: #000000; stroke-width: 2; stroke-linecap: round"/>
   </g>
   <g id="line2d_4">
    <path d="M 184.74 315.18 
L 202.74 315.18 
" clip-path="url(#p578e5bad34)" style="fill: none; stroke: #000000; stroke-width: 2; stroke-linecap: round"/>
   </g>
   <g id="line2d_5">
    <path d="M 94.74 305.1 
L 86.64 305.1 
L 78.54 305.1 
" clip-path="url(#p578e5bad34)" style="fill: none; stroke: #000000; stroke-width: 2; stroke-linecap: round"/>
   </g>
   <g id="line2d_6">
    <path d="M 94.74 325.26 
L 94.74 333.36 
L 94.74 341.46 
" clip-path="url(#p578e5bad34)" style="fill: none; stroke: #000000; stroke-width: 2; stroke-linecap: round"/>
   </g>
   <g id="line2d_7">
    <path d="M 94.74 341.46 
L 94.74 355.86 
L 85.74 355.86 
L 103.74 355.86 
M 88.44 360.18 
L 101.04 360.18 
M 92.94 364.5 
L 96.54 364.5 
" clip-path="url(#p578e5bad34)" style="fill: none; stroke: #000000; stroke-width: 2; stroke-linecap: round"/>
   </g>
   <g id="line2d_8">
    <path d="M 202.74 315.18 
L 216.24 315.18 
L 229.74 315.18 
" clip-path="url(#p578e5bad34)" style="fill: none; stroke: #000000; stroke-width: 2; stroke-linecap: round"/>
   </g>
   <g id="line2d_9">
    <path d="M 229.74 315.18 
L 262.5 315.18 
M 262.5 306.18 
L 262.5 324.18 
M 268.98 306.18 
L 268.98 324.18 
M 268.98 315.18 
L 301.74 315.18 
" clip-path="url(#p578e5bad34)" style="fill: none; stroke: #000000; stroke-width: 2; stroke-linecap: round"/>
   </g>
   <g id="line2d_10">
    <path d="M 56.94 37.98 
L 56.94 70.74 
M 65.94 70.74 
L 47.94 70.74 
M 65.94 77.22 
L 47.94 77.22 
M 56.94 77.22 
L 56.94 109.98 
" clip-path="url(#p578e5bad34)" style="fill: none; stroke: #000000; stroke-width: 2; stroke-linecap: round"/>
   </g>
   <g id="line2d_11">
    <path d="M 56.94 109.98 
L 56.94 124.38 
L 47.94 124.38 
L 65.94 124.38 
M 50.64 128.7 
L 63.24 128.7 
M 55.14 133.02 
L 58.74 133.02 
" clip-path="url(#p578e5bad34)" style="fill: none; stroke: #000000; stroke-width: 2; stroke-linecap: round"/>
   </g>
   <g id="line2d_12">
    <path d="M 56.94 37.98 
L 72.24 37.98 
L 87.54 37.98 
" clip-path="url(#p578e5bad34)" style="fill: none; stroke: #000000; stroke-width: 2; stroke-linecap: round"/>
   </g>
   <g id="line2d_13">
    <path d="M 105.54 62.28 
L 184.74 62.28 
L 184.74 13.68 
L 105.54 13.68 
L 105.54 62.28 
" clip-path="url(#p578e5bad34)" style="fill: none; stroke: #000000; stroke-width: 2; stroke-linecap: round"/>
   </g>
   <g id="line2d_14">
    <path d="M 105.54 37.98 
L 87.54 37.98 
" clip-path="url(#p578e5bad34)" style="fill: none; stroke: #000000; stroke-width: 2; stroke-linecap: round"/>
   </g>
   <g id="line2d_15">
    <path d="M 184.74 37.98 
L 202.74 37.98 
" clip-path="url(#p578e5bad34)" style="fill: none; stroke: #000000; stroke-width: 2; stroke-linecap: round"/>
   </g>
   <g id="line2d_16">
    <path d="M 145.14 62.28 
L 145.14 80.28 
" clip-path="url(#p578e5bad34)" style="fill: none; stroke: #000000; stroke-width: 2; stroke-linecap: round"/>
   </g>
   <g id="line2d_17">
    <path d="M 145.14 80.28 
L 145.14 86.58 
L 145.14 92.88 
" clip-path="url(#p578e5bad34)" style="fill: none; stroke: #000000; stroke-width: 2; stroke-linecap: round"/>
   </g>
   <g id="line2d_18">
    <path d="M 145.14 92.88 
L 145.14 107.28 
L 136.14 107.28 
L 154.14 107.28 
M 138.84 111.6 
L 151.44 111.6 
M 143.34 115.92 
L 146.94 115.92 
" clip-path="url(#p578e5bad34)" style="fill: none; stroke: #000000; stroke-width: 2; stroke-linecap: round"/>
   </g>
   <g id="line2d_19">
    <path d="M 202.74 37.98 
L 217.14 37.98 
L 231.54 37.98 
" clip-path="url(#p578e5bad34)" style="fill: none; stroke: #000000; stroke-width: 2; stroke-linecap: round"/>
   </g>
   <g id="line2d_20">
    <path d="M 231.54 37.98 
L 231.54 70.74 
M 240.54 70.74 
L 222.54 70.74 
M 240.54 77.22 
L 222.54 77.22 
M 231.54 77.22 
L 231.54 109.98 
" clip-path="url(#p578e5bad34)" style="fill: none; stroke: #000000; stroke-width: 2; stroke-linecap: round"/>
   </g>
   <g id="line2d_21">
    <path d="M 231.54 109.98 
L 231.54 124.38 
L 222.54 124.38 
L 240.54 124.38 
M 225.24 128.7 
L 237.84 128.7 
M 229.74 133.02 
L 233.34 133.02 
" clip-path="url(#p578e5bad34)" style="fill: none; stroke: #000000; stroke-width: 2; stroke-linecap: round"/>
   </g>
   <g id="line2d_22">
    <path d="M 231.54 37.98 
L 271.14 37.98 
L 310.74 37.98 
" clip-path="url(#p578e5bad34)" style="fill: none; stroke: #000000; stroke-width: 2; stroke-linecap: round"/>
   </g>
   <g id="line2d_23">
    <path d="M 310.74 37.98 
L 310.74 55.98 
L 319.74 58.98 
L 301.74 64.98 
L 319.74 70.98 
L 301.74 76.98 
L 319.74 82.98 
L 301.74 88.98 
L 310.74 91.98 
L 310.74 109.98 
" clip-path="url(#p578e5bad34)" style="fill: none; stroke: #000000; stroke-width: 2; stroke-linecap: round"/>
   </g>
   <g id="line2d_24">
    <path d="M 310.74 109.98 
L 310.74 127.98 
L 319.74 130.98 
L 301.74 136.98 
L 319.74 142.98 
L 301.74 148.98 
L 319.74 154.98 
L 301.74 160.98 
L 310.74 163.98 
L 310.74 181.98 
" clip-path="url(#p578e5bad34)" style="fill: none; stroke: #000000; stroke-width: 2; stroke-linecap: round"/>
   </g>
   <g id="line2d_25">
    <path d="M 310.74 181.98 
L 310.74 196.38 
L 301.74 196.38 
L 319.74 196.38 
M 304.44 200.7 
L 317.04 200.7 
M 308.94 205.02 
L 312.54 205.02 
" clip-path="url(#p578e5bad34)" style="fill: none; stroke: #000000; stroke-width: 2; stroke-linecap: round"/>
   </g>
   <g id="line2d_26">
    <path d="M 310.74 109.98 
L 286.44 109.98 
L 262.14 109.98 
" clip-path="url(#p578e5bad34)" style="fill: none; stroke: #000000; stroke-width: 2; stroke-linecap: round"/>
   </g>
   <g id="line2d_27">
    <path d="M 262.14 109.98 
L 262.14 142.74 
M 271.14 142.74 
L 253.14 142.74 
M 271.14 149.22 
L 253.14 149.22 
M 262.14 149.22 
L 262.14 181.98 
" clip-path="url(#p578e5bad34)" style="fill: none; stroke: #000000; stroke-width: 2; stroke-linecap: round"/>
   </g>
   <g id="line2d_28">
    <path d="M 262.14 181.98 
L 262.14 196.38 
L 253.14 196.38 
L 271.14 196.38 
M 255.84 200.7 
L 268.44 200.7 
M 260.34 205.02 
L 263.94 205.02 
" clip-path="url(#p578e5bad34)" style="fill: none; stroke: #000000; stroke-width: 2; stroke-linecap: round"/>
   </g>
   <g id="line2d_29">
    <path d="M 310.74 109.98 
L 613.14 109.98 
L 915.54 109.98 
" clip-path="url(#p578e5bad34)" style="fill: none; stroke: #000000; stroke-width: 2; stroke-linecap: round"/>
   </g>
   <g id="line2d_30">
    <path d="M 301.74 315.18 
L 319.74 315.18 
L 337.74 315.18 
" clip-path="url(#p578e5bad34)" style="fill: none; stroke: #000000; stroke-width: 2; stroke-linecap: round"/>
   </g>
   <g id="line2d_31">
    <path d="M 337.74 315.18 
L 337.74 230.58 
L 328.74 227.58 
L 346.74 221.58 
L 328.74 215.58 
L 346.74 209.58 
L 328.74 203.58 
L 346.74 197.58 
L 337.74 194.58 
L 337.74 109.98 
" clip-path="url(#p578e5bad34)" style="fill: none; stroke: #000000; stroke-width: 2; stroke-linecap: round"/>
   </g>
   <g id="line2d_32">
    <path d="M 337.74 315.18 
L 362.04 315.18 
L 386.34 315.18 
" clip-path="url(#p578e5bad34)" style="fill: none; stroke: #000000; stroke-width: 2; stroke-linecap: round"/>
   </g>
   <g id="line2d_33">
    <path d="M 386.34 292.68 
L 386.34 247.68 
L 464.282286 292.68 
L 386.34 337.68 
L 386.34 292.68 
M 464.282286 292.68 
" clip-path="url(#p578e5bad34)" style="fill: none; stroke: #000000; stroke-width: 2; stroke-linecap: round"/>
   </g>
   <g id="line2d_34">
    <path d="M 392.482786 270.18 
L 399.682786 270.18 
" clip-path="url(#p578e5bad34)" style="fill: none; stroke: #000000; stroke-width: 2; stroke-linecap: round"/>
   </g>
   <g id="line2d_35">
    <path d="M 392.482786 315.18 
L 399.682786 315.18 
" clip-path="url(#p578e5bad34)" style="fill: none; stroke: #000000; stroke-width: 2; stroke-linecap: round"/>
   </g>
   <g id="line2d_36">
    <path d="M 396.082786 318.78 
L 396.082786 311.58 
" clip-path="url(#p578e5bad34)" style="fill: none; stroke: #000000; stroke-width: 2; stroke-linecap: round"/>
   </g>
   <g id="line2d_37">
    <path d="M 386.34 270.18 
L 376.44 270.18 
L 366.54 270.18 
" clip-path="url(#p578e5bad34)" style="fill: none; stroke: #000000; stroke-width: 2; stroke-linecap: round"/>
   </g>
   <g id="line2d_38">
    <path d="M 366.54 270.18 
L 366.54 288.18 
L 375.54 291.18 
L 357.54 297.18 
L 375.54 303.18 
L 357.54 309.18 
L 375.54 315.18 
L 357.54 321.18 
L 366.54 324.18 
L 366.54 342.18 
" clip-path="url(#p578e5bad34)" style="fill: none; stroke: #000000; stroke-width: 2; stroke-linecap: round"/>
   </g>
   <g id="line2d_39">
    <path d="M 366.54 342.18 
L 366.54 374.94 
M 375.54 374.94 
L 357.54 374.94 
M 375.54 381.42 
L 357.54 381.42 
M 366.54 381.42 
L 366.54 414.18 
" clip-path="url(#p578e5bad34)" style="fill: none; stroke: #000000; stroke-width: 2; stroke-linecap: round"/>
   </g>
   <g id="line2d_40">
    <path d="M 366.54 414.18 
L 366.54 428.58 
L 357.54 428.58 
L 375.54 428.58 
M 360.24 432.9 
L 372.84 432.9 
M 364.74 437.22 
L 368.34 437.22 
" clip-path="url(#p578e5bad34)" style="fill: none; stroke: #000000; stroke-width: 2; stroke-linecap: round"/>
   </g>
   <g id="line2d_41">
    <path d="M 386.34 270.18 
L 386.34 250.38 
L 386.34 230.58 
" clip-path="url(#p578e5bad34)" style="fill: none; stroke: #000000; stroke-width: 2; stroke-linecap: round"/>
   </g>
   <g id="line2d_42">
    <path d="M 386.34 230.58 
L 410.64 230.58 
L 413.64 221.58 
L 419.64 239.58 
L 425.64 221.58 
L 431.64 239.58 
L 437.64 221.58 
L 443.64 239.58 
L 446.64 230.58 
L 470.94 230.58 
" clip-path="url(#p578e5bad34)" style="fill: none; stroke: #000000; stroke-width: 2; stroke-linecap: round"/>
   </g>
   <g id="line2d_43">
    <path d="M 470.94 230.58 
L 470.94 261.63 
L 470.94 292.68 
" clip-path="url(#p578e5bad34)" style="fill: none; stroke: #000000; stroke-width: 2; stroke-linecap: round"/>
   </g>
   <g id="line2d_44">
    <path d="M 470.94 292.68 
L 467.611143 292.68 
L 464.282286 292.68 
" clip-path="url(#p578e5bad34)" style="fill: none; stroke: #000000; stroke-width: 2; stroke-linecap: round"/>
   </g>
   <g id="line2d_45">
    <path d="M 386.34 230.58 
L 386.34 219.42 
L 386.34 208.26 
" clip-path="url(#p578e5bad34)" style="fill: none; stroke: #000000; stroke-width: 2; stroke-linecap: round"/>
   </g>
   <g id="line2d_46">
    <path d="M 386.34 208.26 
L 425.4 208.26 
M 425.4 199.26 
L 425.4 217.26 
M 431.88 199.26 
L 431.88 217.26 
M 431.88 208.26 
L 470.94 208.26 
" clip-path="url(#p578e5bad34)" style="fill: none; stroke: #000000; stroke-width: 2; stroke-linecap: round"/>
   </g>
   <g id="line2d_47">
    <path d="M 470.94 208.26 
L 470.94 219.42 
L 470.94 230.58 
" clip-path="url(#p578e5bad34)" style="fill: none; stroke: #000000; stroke-width: 2; stroke-linecap: round"/>
   </g>
   <g id="line2d_48">
    <path d="M 464.282286 292.68 
L 477.782286 292.68 
L 491.282286 292.68 
" clip-path="url(#p578e5bad34)" style="fill: none; stroke: #000000; stroke-width: 2; stroke-linecap: round"/>
   </g>
   <g id="line2d_49">
    <path d="M 491.282286 292.68 
L 524.042286 292.68 
M 524.042286 283.68 
L 524.042286 301.68 
M 530.522286 283.68 
L 530.522286 301.68 
M 530.522286 292.68 
L 563.282286 292.68 
" clip-path="url(#p578e5bad34)" style="fill: none; stroke: #000000; stroke-width: 2; stroke-linecap: round"/>
   </g>
   <g id="line2d_50">
    <path d="M 563.282286 292.68 
L 581.282286 292.68 
L 599.282286 292.68 
" clip-path="url(#p578e5bad34)" style="fill: none; stroke: #000000; stroke-width: 2; stroke-linecap: round"/>
   </g>
   <g id="line2d_51">
    <path d="M 599.282286 292.68 
L 599.282286 219.33 
L 590.282286 216.33 
L 608.282286 210.33 
L 590.282286 204.33 
L 608.282286 198.33 
L 590.282286 192.33 
L 608.282286 186.33 
L 599.282286 183.33 
L 599.282286 109.98 
" clip-path="url(#p578e5bad34)" style="fill: none; stroke: #000000; stroke-width: 2; stroke-linecap: round"/>
   </g>
   <g id="line2d_52">
    <path d="M 599.282286 292.68 
L 623.582286 292.68 
L 647.882286 292.68 
" clip-path="url(#p578e5bad34)" style="fill: none; stroke: #000000; stroke-width: 2; stroke-linecap: round"/>
   </g>
   <g id="line2d_53">
    <path d="M 647.882286 270.18 
L 647.882286 225.18 
L 725.824573 270.18 
L 647.882286 315.18 
L 647.882286 270.18 
M 725.824573 270.18 
" clip-path="url(#p578e5bad34)" style="fill: none; stroke: #000000; stroke-width: 2; stroke-linecap: round"/>
   </g>
   <g id="line2d_54">
    <path d="M 654.025072 247.68 
L 661.225072 247.68 
" clip-path="url(#p578e5bad34)" style="fill: none; stroke: #000000; stroke-width: 2; stroke-linecap: round"/>
   </g>
   <g id="line2d_55">
    <path d="M 654.025072 292.68 
L 661.225072 292.68 
" clip-path="url(#p578e5bad34)" style="fill: none; stroke: #000000; stroke-width: 2; stroke-linecap: round"/>
   </g>
   <g id="line2d_56">
    <path d="M 657.625072 296.28 
L 657.625072 289.08 
" clip-path="url(#p578e5bad34)" style="fill: none; stroke: #000000; stroke-width: 2; stroke-linecap: round"/>
   </g>
   <g id="line2d_57">
    <path d="M 647.882286 247.68 
L 637.982286 247.68 
L 628.082286 247.68 
" clip-path="url(#p578e5bad34)" style="fill: none; stroke: #000000; stroke-width: 2; stroke-linecap: round"/>
   </g>
   <g id="line2d_58">
    <path d="M 628.082286 247.68 
L 628.082286 265.68 
L 637.082286 268.68 
L 619.082286 274.68 
L 637.082286 280.68 
L 619.082286 286.68 
L 637.082286 292.68 
L 619.082286 298.68 
L 628.082286 301.68 
L 628.082286 319.68 
" clip-path="url(#p578e5bad34)" style="fill: none; stroke: #000000; stroke-width: 2; stroke-linecap: round"/>
   </g>
   <g id="line2d_59">
    <path d="M 628.082286 319.68 
L 628.082286 352.44 
M 637.082286 352.44 
L 619.082286 352.44 
M 637.082286 358.92 
L 619.082286 358.92 
M 628.082286 358.92 
L 628.082286 391.68 
" clip-path="url(#p578e5bad34)" style="fill: none; stroke: #000000; stroke-width: 2; stroke-linecap: round"/>
   </g>
   <g id="line2d_60">
    <path d="M 628.082286 391.68 
L 628.082286 406.08 
L 619.082286 406.08 
L 637.082286 406.08 
M 621.782286 410.4 
L 634.382286 410.4 
M 626.282286 414.72 
L 629.882286 414.72 
" clip-path="url(#p578e5bad34)" style="fill: none; stroke: #000000; stroke-width: 2; stroke-linecap: round"/>
   </g>
   <g id="line2d_61">
    <path d="M 647.882286 247.68 
L 647.882286 227.88 
L 647.882286 208.08 
" clip-path="url(#p578e5bad34)" style="fill: none; stroke: #000000; stroke-width: 2; stroke-linecap: round"/>
   </g>
   <g id="line2d_62">
    <path d="M 647.882286 208.08 
L 672.182286 208.08 
L 675.182286 199.08 
L 681.182286 217.08 
L 687.182286 199.08 
L 693.182286 217.08 
L 699.182286 199.08 
L 705.182286 217.08 
L 708.182286 208.08 
L 732.482286 208.08 
" clip-path="url(#p578e5bad34)" style="fill: none; stroke: #000000; stroke-width: 2; stroke-linecap: round"/>
   </g>
   <g id="line2d_63">
    <path d="M 732.482286 208.08 
L 732.482286 239.13 
L 732.482286 270.18 
" clip-path="url(#p578e5bad34)" style="fill: none; stroke: #000000; stroke-width: 2; stroke-linecap: round"/>
   </g>
   <g id="line2d_64">
    <path d="M 732.482286 270.18 
L 729.15343 270.18 
L 725.824573 270.18 
" clip-path="url(#p578e5bad34)" style="fill: none; stroke: #000000; stroke-width: 2; stroke-linecap: round"/>
   </g>
   <g id="line2d_65">
    <path d="M 647.882286 208.08 
L 647.882286 196.92 
L 647.882286 185.76 
" clip-path="url(#p578e5bad34)" style="fill: none; stroke: #000000; stroke-width: 2; stroke-linecap: round"/>
   </g>
   <g id="line2d_66">
    <path d="M 647.882286 185.76 
L 686.942286 185.76 
M 686.942286 176.76 
L 686.942286 194.76 
M 693.422286 176.76 
L 693.422286 194.76 
M 693.422286 185.76 
L 732.482286 185.76 
" clip-path="url(#p578e5bad34)" style="fill: none; stroke: #000000; stroke-width: 2; stroke-linecap: round"/>
   </g>
   <g id="line2d_67">
    <path d="M 732.482286 185.76 
L 732.482286 196.92 
L 732.482286 208.08 
" clip-path="url(#p578e5bad34)" style="fill: none; stroke: #000000; stroke-width: 2; stroke-linecap: round"/>
   </g>
   <g id="line2d_68">
    <path d="M 725.824573 270.18 
L 739.324573 270.18 
L 752.824573 270.18 
" clip-path="url(#p578e5bad34)" style="fill: none; stroke: #000000; stroke-width: 2; stroke-linecap: round"/>
   </g>
   <g id="line2d_69">
    <path d="M 752.824573 270.18 
L 770.824573 270.18 
L 773.824573 261.18 
L 779.824573 279.18 
L 785.824573 261.18 
L 791.824573 279.18 
L 797.824573 261.18 
L 803.824573 279.18 
L 806.824573 270.18 
L 824.824573 270.18 
" clip-path="url(#p578e5bad34)" style="fill: none; stroke: #000000; stroke-width: 2; stroke-linecap: round"/>
   </g>
   <g id="line2d_70">
    <path d="M 842.824573 315.18 
L 922.024573 315.18 
L 922.024573 225.18 
L 842.824573 225.18 
L 842.824573 315.18 
" clip-path="url(#p578e5bad34)" style="fill: none; stroke: #000000; stroke-width: 2; stroke-linecap: round"/>
   </g>
   <g id="line2d_71">
    <path d="M 842.824573 270.18 
L 824.824573 270.18 
" clip-path="url(#p578e5bad34)" style="fill: none; stroke: #000000; stroke-width: 2; stroke-linecap: round"/>
   </g>
   <g id="line2d_72">
    <path d="M 882.424573 315.18 
L 882.424573 333.18 
" clip-path="url(#p578e5bad34)" style="fill: none; stroke: #000000; stroke-width: 2; stroke-linecap: round"/>
   </g>
   <g id="line2d_73">
    <path d="M 882.424573 333.18 
L 882.424573 340.74 
L 882.424573 348.3 
" clip-path="url(#p578e5bad34)" style="fill: none; stroke: #000000; stroke-width: 2; stroke-linecap: round"/>
   </g>
   <g id="line2d_74">
    <path d="M 882.424573 348.3 
L 882.424573 362.7 
L 873.424573 362.7 
L 891.424573 362.7 
M 876.124573 367.02 
L 888.724573 367.02 
M 880.624573 371.34 
L 884.224573 371.34 
" clip-path="url(#p578e5bad34)" style="fill: none; stroke: #000000; stroke-width: 2; stroke-linecap: round"/>
   </g>
   <g id="text_1">
    <!-- HB100 -->
    <g transform="translate(138.9525 309.91625) scale(0.08 -0.08)">
     <defs>
      <path id="DejaVuSans-48" d="M 628 4666 
L 1259 4666 
L 1259 2753 
L 3553 2753 
L 3553 4666 
L 4184 4666 
L 4184 0 
L 3553 0 
L 3553 2222 
L 1259 2222 
L 1259 0 
L 628 0 
L 628 4666 
z
" transform="scale(0.015625)"/>
      <path id="DejaVuSans-42" d="M 1259 2228 
L 1259 519 
L 2272 519 
Q 2781 519 3026 730 
Q 3272 941 3272 1375 
Q 3272 1813 3026 2020 
Q 2781 2228 2272 2228 
L 1259 2228 
z
M 1259 4147 
L 1259 2741 
L 2194 2741 
Q 2656 2741 2882 2914 
Q 3109 3088 3109 3444 
Q 3109 3797 2882 3972 
Q 2656 4147 2194 4147 
L 1259 4147 
z
M 628 4666 
L 2241 4666 
Q 2963 4666 3353 4366 
Q 3744 4066 3744 3513 
Q 3744 3084 3544 2831 
Q 3344 2578 2956 2516 
Q 3422 2416 3680 2098 
Q 3938 1781 3938 1306 
Q 3938 681 3513 340 
Q 3088 0 2303 0 
L 628 0 
L 628 4666 
z
" transform="scale(0.015625)"/>
      <path id="DejaVuSans-31" d="M 794 531 
L 1825 531 
L 1825 4091 
L 703 3866 
L 703 4441 
L 1819 4666 
L 2450 4666 
L 2450 531 
L 3481 531 
L 3481 0 
L 794 0 
L 794 531 
z
" transform="scale(0.015625)"/>
      <path id="DejaVuSans-30" d="M 2034 4250 
Q 1547 4250 1301 3770 
Q 1056 3291 1056 2328 
Q 1056 1369 1301 889 
Q 1547 409 2034 409 
Q 2525 409 2770 889 
Q 3016 1369 3016 2328 
Q 3016 3291 2770 3770 
Q 2525 4250 2034 4250 
z
M 2034 4750 
Q 2819 4750 3233 4129 
Q 3647 3509 3647 2328 
Q 3647 1150 3233 529 
Q 2819 -91 2034 -91 
Q 1250 -91 836 529 
Q 422 1150 422 2328 
Q 422 3509 836 4129 
Q 1250 4750 2034 4750 
z
" transform="scale(0.015625)"/>
     </defs>
     <use xlink:href="#DejaVuSans-48"/>
     <use xlink:href="#DejaVuSans-42" transform="translate(75.195312 0)"/>
     <use xlink:href="#DejaVuSans-31" transform="translate(143.798828 0)"/>
     <use xlink:href="#DejaVuSans-30" transform="translate(207.421875 0)"/>
     <use xlink:href="#DejaVuSans-30" transform="translate(271.044922 0)"/>
    </g>
    <!-- Radar Module -->
    <g transform="translate(124.7475 317.65875) scale(0.08 -0.08)">
     <defs>
      <path id="DejaVuSans-52" d="M 2841 2188 
Q 3044 2119 3236 1894 
Q 3428 1669 3622 1275 
L 4263 0 
L 3584 0 
L 2988 1197 
Q 2756 1666 2539 1819 
Q 2322 1972 1947 1972 
L 1259 1972 
L 1259 0 
L 628 0 
L 628 4666 
L 2053 4666 
Q 2853 4666 3247 4331 
Q 3641 3997 3641 3322 
Q 3641 2881 3436 2590 
Q 3231 2300 2841 2188 
z
M 1259 4147 
L 1259 2491 
L 2053 2491 
Q 2509 2491 2742 2702 
Q 2975 2913 2975 3322 
Q 2975 3731 2742 3939 
Q 2509 4147 2053 4147 
L 1259 4147 
z
" transform="scale(0.015625)"/>
      <path id="DejaVuSans-61" d="M 2194 1759 
Q 1497 1759 1228 1600 
Q 959 1441 959 1056 
Q 959 750 1161 570 
Q 1363 391 1709 391 
Q 2188 391 2477 730 
Q 2766 1069 2766 1631 
L 2766 1759 
L 2194 1759 
z
M 3341 1997 
L 3341 0 
L 2766 0 
L 2766 531 
Q 2569 213 2275 61 
Q 1981 -91 1556 -91 
Q 1019 -91 701 211 
Q 384 513 384 1019 
Q 384 1609 779 1909 
Q 1175 2209 1959 2209 
L 2766 2209 
L 2766 2266 
Q 2766 2663 2505 2880 
Q 2244 3097 1772 3097 
Q 1472 3097 1187 3025 
Q 903 2953 641 2809 
L 641 3341 
Q 956 3463 1253 3523 
Q 1550 3584 1831 3584 
Q 2591 3584 2966 3190 
Q 3341 2797 3341 1997 
z
" transform="scale(0.015625)"/>
      <path id="DejaVuSans-64" d="M 2906 2969 
L 2906 4863 
L 3481 4863 
L 3481 0 
L 2906 0 
L 2906 525 
Q 2725 213 2448 61 
Q 2172 -91 1784 -91 
Q 1150 -91 751 415 
Q 353 922 353 1747 
Q 353 2572 751 3078 
Q 1150 3584 1784 3584 
Q 2172 3584 2448 3432 
Q 2725 3281 2906 2969 
z
M 947 1747 
Q 947 1113 1208 752 
Q 1469 391 1925 391 
Q 2381 391 2643 752 
Q 2906 1113 2906 1747 
Q 2906 2381 2643 2742 
Q 2381 3103 1925 3103 
Q 1469 3103 1208 2742 
Q 947 2381 947 1747 
z
" transform="scale(0.015625)"/>
      <path id="DejaVuSans-72" d="M 2631 2963 
Q 2534 3019 2420 3045 
Q 2306 3072 2169 3072 
Q 1681 3072 1420 2755 
Q 1159 2438 1159 1844 
L 1159 0 
L 581 0 
L 581 3500 
L 1159 3500 
L 1159 2956 
Q 1341 3275 1631 3429 
Q 1922 3584 2338 3584 
Q 2397 3584 2469 3576 
Q 2541 3569 2628 3553 
L 2631 2963 
z
" transform="scale(0.015625)"/>
      <path id="DejaVuSans-20" transform="scale(0.015625)"/>
      <path id="DejaVuSans-4d" d="M 628 4666 
L 1569 4666 
L 2759 1491 
L 3956 4666 
L 4897 4666 
L 4897 0 
L 4281 0 
L 4281 4097 
L 3078 897 
L 2444 897 
L 1241 4097 
L 1241 0 
L 628 0 
L 628 4666 
z
" transform="scale(0.015625)"/>
      <path id="DejaVuSans-6f" d="M 1959 3097 
Q 1497 3097 1228 2736 
Q 959 2375 959 1747 
Q 959 1119 1226 758 
Q 1494 397 1959 397 
Q 2419 397 2687 759 
Q 2956 1122 2956 1747 
Q 2956 2369 2687 2733 
Q 2419 3097 1959 3097 
z
M 1959 3584 
Q 2709 3584 3137 3096 
Q 3566 2609 3566 1747 
Q 3566 888 3137 398 
Q 2709 -91 1959 -91 
Q 1206 -91 779 398 
Q 353 888 353 1747 
Q 353 2609 779 3096 
Q 1206 3584 1959 3584 
z
" transform="scale(0.015625)"/>
      <path id="DejaVuSans-75" d="M 544 1381 
L 544 3500 
L 1119 3500 
L 1119 1403 
Q 1119 906 1312 657 
Q 1506 409 1894 409 
Q 2359 409 2629 706 
Q 2900 1003 2900 1516 
L 2900 3500 
L 3475 3500 
L 3475 0 
L 2900 0 
L 2900 538 
Q 2691 219 2414 64 
Q 2138 -91 1772 -91 
Q 1169 -91 856 284 
Q 544 659 544 1381 
z
M 1991 3584 
L 1991 3584 
z
" transform="scale(0.015625)"/>
      <path id="DejaVuSans-6c" d="M 603 4863 
L 1178 4863 
L 1178 0 
L 603 0 
L 603 4863 
z
" transform="scale(0.015625)"/>
      <path id="DejaVuSans-65" d="M 3597 1894 
L 3597 1613 
L 953 1613 
Q 991 1019 1311 708 
Q 1631 397 2203 397 
Q 2534 397 2845 478 
Q 3156 559 3463 722 
L 3463 178 
Q 3153 47 2828 -22 
Q 2503 -91 2169 -91 
Q 1331 -91 842 396 
Q 353 884 353 1716 
Q 353 2575 817 3079 
Q 1281 3584 2069 3584 
Q 2775 3584 3186 3129 
Q 3597 2675 3597 1894 
z
M 3022 2063 
Q 3016 2534 2758 2815 
Q 2500 3097 2075 3097 
Q 1594 3097 1305 2825 
Q 1016 2553 972 2059 
L 3022 2063 
z
" transform="scale(0.015625)"/>
     </defs>
     <use xlink:href="#DejaVuSans-52"/>
     <use xlink:href="#DejaVuSans-61" transform="translate(67.232422 0)"/>
     <use xlink:href="#DejaVuSans-64" transform="translate(128.511719 0)"/>
     <use xlink:href="#DejaVuSans-61" transform="translate(191.988281 0)"/>
     <use xlink:href="#DejaVuSans-72" transform="translate(253.267578 0)"/>
     <use xlink:href="#DejaVuSans-20" transform="translate(294.380859 0)"/>
     <use xlink:href="#DejaVuSans-4d" transform="translate(326.167969 0)"/>
     <use xlink:href="#DejaVuSans-6f" transform="translate(412.447266 0)"/>
     <use xlink:href="#DejaVuSans-64" transform="translate(473.628906 0)"/>
     <use xlink:href="#DejaVuSans-75" transform="translate(537.105469 0)"/>
     <use xlink:href="#DejaVuSans-6c" transform="translate(600.484375 0)"/>
     <use xlink:href="#DejaVuSans-65" transform="translate(628.267578 0)"/>
    </g>
   </g>
   <g id="text_2">
    <!-- 5V (VIN) -->
    <g transform="translate(70.0575 299.83625) scale(0.08 -0.08)">
     <defs>
      <path id="DejaVuSans-35" d="M 691 4666 
L 3169 4666 
L 3169 4134 
L 1269 4134 
L 1269 2991 
Q 1406 3038 1543 3061 
Q 1681 3084 1819 3084 
Q 2600 3084 3056 2656 
Q 3513 2228 3513 1497 
Q 3513 744 3044 326 
Q 2575 -91 1722 -91 
Q 1428 -91 1123 -41 
Q 819 9 494 109 
L 494 744 
Q 775 591 1075 516 
Q 1375 441 1709 441 
Q 2250 441 2565 725 
Q 2881 1009 2881 1497 
Q 2881 1984 2565 2268 
Q 2250 2553 1709 2553 
Q 1456 2553 1204 2497 
Q 953 2441 691 2322 
L 691 4666 
z
" transform="scale(0.015625)"/>
      <path id="DejaVuSans-56" d="M 1831 0 
L 50 4666 
L 709 4666 
L 2188 738 
L 3669 4666 
L 4325 4666 
L 2547 0 
L 1831 0 
z
" transform="scale(0.015625)"/>
      <path id="DejaVuSans-28" d="M 1984 4856 
Q 1566 4138 1362 3434 
Q 1159 2731 1159 2009 
Q 1159 1288 1364 580 
Q 1569 -128 1984 -844 
L 1484 -844 
Q 1016 -109 783 600 
Q 550 1309 550 2009 
Q 550 2706 781 3412 
Q 1013 4119 1484 4856 
L 1984 4856 
z
" transform="scale(0.015625)"/>
      <path id="DejaVuSans-49" d="M 628 4666 
L 1259 4666 
L 1259 0 
L 628 0 
L 628 4666 
z
" transform="scale(0.015625)"/>
      <path id="DejaVuSans-4e" d="M 628 4666 
L 1478 4666 
L 3547 763 
L 3547 4666 
L 4159 4666 
L 4159 0 
L 3309 0 
L 1241 3903 
L 1241 0 
L 628 0 
L 628 4666 
z
" transform="scale(0.015625)"/>
      <path id="DejaVuSans-29" d="M 513 4856 
L 1013 4856 
Q 1481 4119 1714 3412 
Q 1947 2706 1947 2009 
Q 1947 1309 1714 600 
Q 1481 -109 1013 -844 
L 513 -844 
Q 928 -128 1133 580 
Q 1338 1288 1338 2009 
Q 1338 2731 1133 3434 
Q 928 4138 513 4856 
z
" transform="scale(0.015625)"/>
     </defs>
     <use xlink:href="#DejaVuSans-35"/>
     <use xlink:href="#DejaVuSans-56" transform="translate(63.623047 0)"/>
     <use xlink:href="#DejaVuSans-20" transform="translate(132.03125 0)"/>
     <use xlink:href="#DejaVuSans-28" transform="translate(163.818359 0)"/>
     <use xlink:href="#DejaVuSans-56" transform="translate(202.832031 0)"/>
     <use xlink:href="#DejaVuSans-49" transform="translate(271.240234 0)"/>
     <use xlink:href="#DejaVuSans-4e" transform="translate(300.732422 0)"/>
     <use xlink:href="#DejaVuSans-29" transform="translate(375.537109 0)"/>
    </g>
   </g>
   <g id="text_3">
    <!-- IF OUT -->
    <g transform="translate(202.96875 309.91625) scale(0.08 -0.08)">
     <defs>
      <path id="DejaVuSans-46" d="M 628 4666 
L 3309 4666 
L 3309 4134 
L 1259 4134 
L 1259 2759 
L 3109 2759 
L 3109 2228 
L 1259 2228 
L 1259 0 
L 628 0 
L 628 4666 
z
" transform="scale(0.015625)"/>
      <path id="DejaVuSans-4f" d="M 2522 4238 
Q 1834 4238 1429 3725 
Q 1025 3213 1025 2328 
Q 1025 1447 1429 934 
Q 1834 422 2522 422 
Q 3209 422 3611 934 
Q 4013 1447 4013 2328 
Q 4013 3213 3611 3725 
Q 3209 4238 2522 4238 
z
M 2522 4750 
Q 3503 4750 4090 4092 
Q 4678 3434 4678 2328 
Q 4678 1225 4090 567 
Q 3503 -91 2522 -91 
Q 1538 -91 948 565 
Q 359 1222 359 2328 
Q 359 3434 948 4092 
Q 1538 4750 2522 4750 
z
" transform="scale(0.015625)"/>
      <path id="DejaVuSans-55" d="M 556 4666 
L 1191 4666 
L 1191 1831 
Q 1191 1081 1462 751 
Q 1734 422 2344 422 
Q 2950 422 3222 751 
Q 3494 1081 3494 1831 
L 3494 4666 
L 4128 4666 
L 4128 1753 
Q 4128 841 3676 375 
Q 3225 -91 2344 -91 
Q 1459 -91 1007 375 
Q 556 841 556 1753 
L 556 4666 
z
" transform="scale(0.015625)"/>
      <path id="DejaVuSans-54" d="M -19 4666 
L 3928 4666 
L 3928 4134 
L 2272 4134 
L 2272 0 
L 1638 0 
L 1638 4134 
L -19 4134 
L -19 4666 
z
" transform="scale(0.015625)"/>
     </defs>
     <use xlink:href="#DejaVuSans-49"/>
     <use xlink:href="#DejaVuSans-46" transform="translate(29.492188 0)"/>
     <use xlink:href="#DejaVuSans-20" transform="translate(87.011719 0)"/>
     <use xlink:href="#DejaVuSans-4f" transform="translate(118.798828 0)"/>
     <use xlink:href="#DejaVuSans-55" transform="translate(197.509766 0)"/>
     <use xlink:href="#DejaVuSans-54" transform="translate(270.703125 0)"/>
    </g>
   </g>
   <g id="text_4">
    <!-- C1 -->
    <g transform="translate(260.401875 293.17375) scale(0.08 -0.08)">
     <defs>
      <path id="DejaVuSans-43" d="M 4122 4306 
L 4122 3641 
Q 3803 3938 3442 4084 
Q 3081 4231 2675 4231 
Q 1875 4231 1450 3742 
Q 1025 3253 1025 2328 
Q 1025 1406 1450 917 
Q 1875 428 2675 428 
Q 3081 428 3442 575 
Q 3803 722 4122 1019 
L 4122 359 
Q 3791 134 3420 21 
Q 3050 -91 2638 -91 
Q 1578 -91 968 557 
Q 359 1206 359 2328 
Q 359 3453 968 4101 
Q 1578 4750 2638 4750 
Q 3056 4750 3426 4639 
Q 3797 4528 4122 4306 
z
" transform="scale(0.015625)"/>
     </defs>
     <use xlink:href="#DejaVuSans-43"/>
     <use xlink:href="#DejaVuSans-31" transform="translate(69.824219 0)"/>
    </g>
    <!-- 1µF ("105") -->
    <g transform="translate(242.641875 300.91625) scale(0.08 -0.08)">
     <defs>
      <path id="DejaVuSans-b5" d="M 544 -1331 
L 544 3500 
L 1119 3500 
L 1119 1325 
Q 1119 872 1334 640 
Q 1550 409 1972 409 
Q 2434 409 2667 671 
Q 2900 934 2900 1459 
L 2900 3500 
L 3475 3500 
L 3475 806 
Q 3475 619 3529 530 
Q 3584 441 3700 441 
Q 3728 441 3778 458 
Q 3828 475 3916 513 
L 3916 50 
Q 3788 -22 3673 -56 
Q 3559 -91 3450 -91 
Q 3234 -91 3106 31 
Q 2978 153 2931 403 
Q 2775 156 2548 32 
Q 2322 -91 2016 -91 
Q 1697 -91 1473 31 
Q 1250 153 1119 397 
L 1119 -1331 
L 544 -1331 
z
" transform="scale(0.015625)"/>
      <path id="DejaVuSans-22" d="M 1147 4666 
L 1147 2931 
L 616 2931 
L 616 4666 
L 1147 4666 
z
M 2328 4666 
L 2328 2931 
L 1797 2931 
L 1797 4666 
L 2328 4666 
z
" transform="scale(0.015625)"/>
     </defs>
     <use xlink:href="#DejaVuSans-31"/>
     <use xlink:href="#DejaVuSans-b5" transform="translate(63.623047 0)"/>
     <use xlink:href="#DejaVuSans-46" transform="translate(127.246094 0)"/>
     <use xlink:href="#DejaVuSans-20" transform="translate(184.765625 0)"/>
     <use xlink:href="#DejaVuSans-28" transform="translate(216.552734 0)"/>
     <use xlink:href="#DejaVuSans-22" transform="translate(255.566406 0)"/>
     <use xlink:href="#DejaVuSans-31" transform="translate(301.5625 0)"/>
     <use xlink:href="#DejaVuSans-30" transform="translate(365.185547 0)"/>
     <use xlink:href="#DejaVuSans-35" transform="translate(428.808594 0)"/>
     <use xlink:href="#DejaVuSans-22" transform="translate(492.431641 0)"/>
     <use xlink:href="#DejaVuSans-29" transform="translate(538.427734 0)"/>
    </g>
   </g>
   <g id="text_5">
    <!-- C_in -->
    <g transform="translate(25.100625 90.85875) scale(0.08 -0.08)">
     <defs>
      <path id="DejaVuSans-5f" d="M 3263 -1063 
L 3263 -1509 
L -63 -1509 
L -63 -1063 
L 3263 -1063 
z
" transform="scale(0.015625)"/>
      <path id="DejaVuSans-69" d="M 603 3500 
L 1178 3500 
L 1178 0 
L 603 0 
L 603 3500 
z
M 603 4863 
L 1178 4863 
L 1178 4134 
L 603 4134 
L 603 4863 
z
" transform="scale(0.015625)"/>
      <path id="DejaVuSans-6e" d="M 3513 2113 
L 3513 0 
L 2938 0 
L 2938 2094 
Q 2938 2591 2744 2837 
Q 2550 3084 2163 3084 
Q 1697 3084 1428 2787 
Q 1159 2491 1159 1978 
L 1159 0 
L 581 0 
L 581 3500 
L 1159 3500 
L 1159 2956 
Q 1366 3272 1645 3428 
Q 1925 3584 2291 3584 
Q 2894 3584 3203 3211 
Q 3513 2838 3513 2113 
z
" transform="scale(0.015625)"/>
     </defs>
     <use xlink:href="#DejaVuSans-43"/>
     <use xlink:href="#DejaVuSans-5f" transform="translate(69.824219 0)"/>
     <use xlink:href="#DejaVuSans-69" transform="translate(119.824219 0)"/>
     <use xlink:href="#DejaVuSans-6e" transform="translate(147.607422 0)"/>
    </g>
    <!-- 1µF ("105") -->
    <g transform="translate(10.441875 98.82375) scale(0.08 -0.08)">
     <use xlink:href="#DejaVuSans-31"/>
     <use xlink:href="#DejaVuSans-b5" transform="translate(63.623047 0)"/>
     <use xlink:href="#DejaVuSans-46" transform="translate(127.246094 0)"/>
     <use xlink:href="#DejaVuSans-20" transform="translate(184.765625 0)"/>
     <use xlink:href="#DejaVuSans-28" transform="translate(216.552734 0)"/>
     <use xlink:href="#DejaVuSans-22" transform="translate(255.566406 0)"/>
     <use xlink:href="#DejaVuSans-31" transform="translate(301.5625 0)"/>
     <use xlink:href="#DejaVuSans-30" transform="translate(365.185547 0)"/>
     <use xlink:href="#DejaVuSans-35" transform="translate(428.808594 0)"/>
     <use xlink:href="#DejaVuSans-22" transform="translate(492.431641 0)"/>
     <use xlink:href="#DejaVuSans-29" transform="translate(538.427734 0)"/>
    </g>
   </g>
   <g id="text_6">
    <!-- MCP1700 -->
    <g transform="translate(129.90375 32.71625) scale(0.08 -0.08)">
     <defs>
      <path id="DejaVuSans-50" d="M 1259 4147 
L 1259 2394 
L 2053 2394 
Q 2494 2394 2734 2622 
Q 2975 2850 2975 3272 
Q 2975 3691 2734 3919 
Q 2494 4147 2053 4147 
L 1259 4147 
z
M 628 4666 
L 2053 4666 
Q 2838 4666 3239 4311 
Q 3641 3956 3641 3272 
Q 3641 2581 3239 2228 
Q 2838 1875 2053 1875 
L 1259 1875 
L 1259 0 
L 628 0 
L 628 4666 
z
" transform="scale(0.015625)"/>
      <path id="DejaVuSans-37" d="M 525 4666 
L 3525 4666 
L 3525 4397 
L 1831 0 
L 1172 0 
L 2766 4134 
L 525 4134 
L 525 4666 
z
" transform="scale(0.015625)"/>
     </defs>
     <use xlink:href="#DejaVuSans-4d"/>
     <use xlink:href="#DejaVuSans-43" transform="translate(86.279297 0)"/>
     <use xlink:href="#DejaVuSans-50" transform="translate(156.103516 0)"/>
     <use xlink:href="#DejaVuSans-31" transform="translate(216.40625 0)"/>
     <use xlink:href="#DejaVuSans-37" transform="translate(280.029297 0)"/>
     <use xlink:href="#DejaVuSans-30" transform="translate(343.652344 0)"/>
     <use xlink:href="#DejaVuSans-30" transform="translate(407.275391 0)"/>
    </g>
    <!-- 3.3V LDO -->
    <g transform="translate(129.91375 40.45875) scale(0.08 -0.08)">
     <defs>
      <path id="DejaVuSans-33" d="M 2597 2516 
Q 3050 2419 3304 2112 
Q 3559 1806 3559 1356 
Q 3559 666 3084 287 
Q 2609 -91 1734 -91 
Q 1441 -91 1130 -33 
Q 819 25 488 141 
L 488 750 
Q 750 597 1062 519 
Q 1375 441 1716 441 
Q 2309 441 2620 675 
Q 2931 909 2931 1356 
Q 2931 1769 2642 2001 
Q 2353 2234 1838 2234 
L 1294 2234 
L 1294 2753 
L 1863 2753 
Q 2328 2753 2575 2939 
Q 2822 3125 2822 3475 
Q 2822 3834 2567 4026 
Q 2313 4219 1838 4219 
Q 1578 4219 1281 4162 
Q 984 4106 628 3988 
L 628 4550 
Q 988 4650 1302 4700 
Q 1616 4750 1894 4750 
Q 2613 4750 3031 4423 
Q 3450 4097 3450 3541 
Q 3450 3153 3228 2886 
Q 3006 2619 2597 2516 
z
" transform="scale(0.015625)"/>
      <path id="DejaVuSans-2e" d="M 684 794 
L 1344 794 
L 1344 0 
L 684 0 
L 684 794 
z
" transform="scale(0.015625)"/>
      <path id="DejaVuSans-4c" d="M 628 4666 
L 1259 4666 
L 1259 531 
L 3531 531 
L 3531 0 
L 628 0 
L 628 4666 
z
" transform="scale(0.015625)"/>
      <path id="DejaVuSans-44" d="M 1259 4147 
L 1259 519 
L 2022 519 
Q 2988 519 3436 956 
Q 3884 1394 3884 2338 
Q 3884 3275 3436 3711 
Q 2988 4147 2022 4147 
L 1259 4147 
z
M 628 4666 
L 1925 4666 
Q 3281 4666 3915 4102 
Q 4550 3538 4550 2338 
Q 4550 1131 3912 565 
Q 3275 0 1925 0 
L 628 0 
L 628 4666 
z
" transform="scale(0.015625)"/>
     </defs>
     <use xlink:href="#DejaVuSans-33"/>
     <use xlink:href="#DejaVuSans-2e" transform="translate(63.623047 0)"/>
     <use xlink:href="#DejaVuSans-33" transform="translate(95.410156 0)"/>
     <use xlink:href="#DejaVuSans-56" transform="translate(159.033203 0)"/>
     <use xlink:href="#DejaVuSans-20" transform="translate(227.441406 0)"/>
     <use xlink:href="#DejaVuSans-4c" transform="translate(259.228516 0)"/>
     <use xlink:href="#DejaVuSans-44" transform="translate(314.941406 0)"/>
     <use xlink:href="#DejaVuSans-4f" transform="translate(391.943359 0)"/>
    </g>
   </g>
   <g id="text_7">
    <!-- VIN -->
    <g transform="translate(89.63125 21.19625) scale(0.08 -0.08)">
     <use xlink:href="#DejaVuSans-56"/>
     <use xlink:href="#DejaVuSans-49" transform="translate(68.408203 0)"/>
     <use xlink:href="#DejaVuSans-4e" transform="translate(97.900391 0)"/>
    </g>
   </g>
   <g id="text_8">
    <!-- VOUT -->
    <g transform="translate(189.754375 21.19625) scale(0.08 -0.08)">
     <use xlink:href="#DejaVuSans-56"/>
     <use xlink:href="#DejaVuSans-4f" transform="translate(66.658203 0)"/>
     <use xlink:href="#DejaVuSans-55" transform="translate(145.369141 0)"/>
     <use xlink:href="#DejaVuSans-54" transform="translate(218.5625 0)"/>
    </g>
   </g>
   <g id="text_9">
    <!-- C_out -->
    <g transform="translate(207.59625 92.5175) scale(0.08 -0.08)">
     <defs>
      <path id="DejaVuSans-74" d="M 1172 4494 
L 1172 3500 
L 2356 3500 
L 2356 3053 
L 1172 3053 
L 1172 1153 
Q 1172 725 1289 603 
Q 1406 481 1766 481 
L 2356 481 
L 2356 0 
L 1766 0 
Q 1100 0 847 248 
Q 594 497 594 1153 
L 594 3053 
L 172 3053 
L 172 3500 
L 594 3500 
L 594 4494 
L 1172 4494 
z
" transform="scale(0.015625)"/>
     </defs>
     <use xlink:href="#DejaVuSans-43"/>
     <use xlink:href="#DejaVuSans-5f" transform="translate(69.824219 0)"/>
     <use xlink:href="#DejaVuSans-6f" transform="translate(119.824219 0)"/>
     <use xlink:href="#DejaVuSans-75" transform="translate(181.005859 0)"/>
     <use xlink:href="#DejaVuSans-74" transform="translate(244.384766 0)"/>
    </g>
    <!-- 1µF ("105") -->
    <g transform="translate(195.841875 100.4825) scale(0.08 -0.08)">
     <use xlink:href="#DejaVuSans-31"/>
     <use xlink:href="#DejaVuSans-b5" transform="translate(63.623047 0)"/>
     <use xlink:href="#DejaVuSans-46" transform="translate(127.246094 0)"/>
     <use xlink:href="#DejaVuSans-20" transform="translate(184.765625 0)"/>
     <use xlink:href="#DejaVuSans-28" transform="translate(216.552734 0)"/>
     <use xlink:href="#DejaVuSans-22" transform="translate(255.566406 0)"/>
     <use xlink:href="#DejaVuSans-31" transform="translate(301.5625 0)"/>
     <use xlink:href="#DejaVuSans-30" transform="translate(365.185547 0)"/>
     <use xlink:href="#DejaVuSans-35" transform="translate(428.808594 0)"/>
     <use xlink:href="#DejaVuSans-22" transform="translate(492.431641 0)"/>
     <use xlink:href="#DejaVuSans-29" transform="translate(538.427734 0)"/>
    </g>
   </g>
   <g id="text_10">
    <!-- 3.3V_ANA -->
    <g transform="translate(251.5775 32.49375) scale(0.08 -0.08)">
     <defs>
      <path id="DejaVuSans-41" d="M 2188 4044 
L 1331 1722 
L 3047 1722 
L 2188 4044 
z
M 1831 4666 
L 2547 4666 
L 4325 0 
L 3669 0 
L 3244 1197 
L 1141 1197 
L 716 0 
L 50 0 
L 1831 4666 
z
" transform="scale(0.015625)"/>
     </defs>
     <use xlink:href="#DejaVuSans-33"/>
     <use xlink:href="#DejaVuSans-2e" transform="translate(63.623047 0)"/>
     <use xlink:href="#DejaVuSans-33" transform="translate(95.410156 0)"/>
     <use xlink:href="#DejaVuSans-56" transform="translate(159.033203 0)"/>
     <use xlink:href="#DejaVuSans-5f" transform="translate(227.441406 0)"/>
     <use xlink:href="#DejaVuSans-41" transform="translate(277.441406 0)"/>
     <use xlink:href="#DejaVuSans-4e" transform="translate(345.849609 0)"/>
     <use xlink:href="#DejaVuSans-41" transform="translate(420.654297 0)"/>
    </g>
   </g>
   <g id="text_11">
    <!-- R_bias1 -->
    <g transform="translate(324.03 53.55125) scale(0.08 -0.08)">
     <defs>
      <path id="DejaVuSans-62" d="M 3116 1747 
Q 3116 2381 2855 2742 
Q 2594 3103 2138 3103 
Q 1681 3103 1420 2742 
Q 1159 2381 1159 1747 
Q 1159 1113 1420 752 
Q 1681 391 2138 391 
Q 2594 391 2855 752 
Q 3116 1113 3116 1747 
z
M 1159 2969 
Q 1341 3281 1617 3432 
Q 1894 3584 2278 3584 
Q 2916 3584 3314 3078 
Q 3713 2572 3713 1747 
Q 3713 922 3314 415 
Q 2916 -91 2278 -91 
Q 1894 -91 1617 61 
Q 1341 213 1159 525 
L 1159 0 
L 581 0 
L 581 4863 
L 1159 4863 
L 1159 2969 
z
" transform="scale(0.015625)"/>
      <path id="DejaVuSans-73" d="M 2834 3397 
L 2834 2853 
Q 2591 2978 2328 3040 
Q 2066 3103 1784 3103 
Q 1356 3103 1142 2972 
Q 928 2841 928 2578 
Q 928 2378 1081 2264 
Q 1234 2150 1697 2047 
L 1894 2003 
Q 2506 1872 2764 1633 
Q 3022 1394 3022 966 
Q 3022 478 2636 193 
Q 2250 -91 1575 -91 
Q 1294 -91 989 -36 
Q 684 19 347 128 
L 347 722 
Q 666 556 975 473 
Q 1284 391 1588 391 
Q 1994 391 2212 530 
Q 2431 669 2431 922 
Q 2431 1156 2273 1281 
Q 2116 1406 1581 1522 
L 1381 1569 
Q 847 1681 609 1914 
Q 372 2147 372 2553 
Q 372 3047 722 3315 
Q 1072 3584 1716 3584 
Q 2034 3584 2315 3537 
Q 2597 3491 2834 3397 
z
" transform="scale(0.015625)"/>
     </defs>
     <use xlink:href="#DejaVuSans-52"/>
     <use xlink:href="#DejaVuSans-5f" transform="translate(69.482422 0)"/>
     <use xlink:href="#DejaVuSans-62" transform="translate(119.482422 0)"/>
     <use xlink:href="#DejaVuSans-69" transform="translate(182.958984 0)"/>
     <use xlink:href="#DejaVuSans-61" transform="translate(210.742188 0)"/>
     <use xlink:href="#DejaVuSans-73" transform="translate(272.021484 0)"/>
     <use xlink:href="#DejaVuSans-31" transform="translate(324.121094 0)"/>
    </g>
    <!-- 10kΩ -->
    <g transform="translate(329.076875 61.51625) scale(0.08 -0.08)">
     <defs>
      <path id="DejaVuSans-6b" d="M 581 4863 
L 1159 4863 
L 1159 1991 
L 2875 3500 
L 3609 3500 
L 1753 1863 
L 3688 0 
L 2938 0 
L 1159 1709 
L 1159 0 
L 581 0 
L 581 4863 
z
" transform="scale(0.015625)"/>
      <path id="DejaVuSans-3a9" d="M 4647 556 
L 4647 0 
L 2772 0 
L 2772 556 
Q 3325 859 3634 1378 
Q 3944 1897 3944 2528 
Q 3944 3278 3531 3731 
Q 3119 4184 2444 4184 
Q 1769 4184 1355 3729 
Q 941 3275 941 2528 
Q 941 1897 1250 1378 
Q 1563 859 2119 556 
L 2119 0 
L 244 0 
L 244 556 
L 1241 556 
Q 747 991 519 1456 
Q 294 1922 294 2497 
Q 294 3491 894 4106 
Q 1491 4722 2444 4722 
Q 3391 4722 3994 4106 
Q 4594 3494 4594 2528 
Q 4594 1922 4372 1459 
Q 4150 997 3647 556 
L 4647 556 
z
" transform="scale(0.015625)"/>
     </defs>
     <use xlink:href="#DejaVuSans-31"/>
     <use xlink:href="#DejaVuSans-30" transform="translate(63.623047 0)"/>
     <use xlink:href="#DejaVuSans-6b" transform="translate(127.246094 0)"/>
     <use xlink:href="#DejaVuSans-3a9" transform="translate(185.15625 0)"/>
    </g>
   </g>
   <g id="text_12">
    <!-- R_bias2 -->
    <g transform="translate(324.03 138.15125) scale(0.08 -0.08)">
     <defs>
      <path id="DejaVuSans-32" d="M 1228 531 
L 3431 531 
L 3431 0 
L 469 0 
L 469 531 
Q 828 903 1448 1529 
Q 2069 2156 2228 2338 
Q 2531 2678 2651 2914 
Q 2772 3150 2772 3378 
Q 2772 3750 2511 3984 
Q 2250 4219 1831 4219 
Q 1534 4219 1204 4116 
Q 875 4013 500 3803 
L 500 4441 
Q 881 4594 1212 4672 
Q 1544 4750 1819 4750 
Q 2544 4750 2975 4387 
Q 3406 4025 3406 3419 
Q 3406 3131 3298 2873 
Q 3191 2616 2906 2266 
Q 2828 2175 2409 1742 
Q 1991 1309 1228 531 
z
" transform="scale(0.015625)"/>
     </defs>
     <use xlink:href="#DejaVuSans-52"/>
     <use xlink:href="#DejaVuSans-5f" transform="translate(69.482422 0)"/>
     <use xlink:href="#DejaVuSans-62" transform="translate(119.482422 0)"/>
     <use xlink:href="#DejaVuSans-69" transform="translate(182.958984 0)"/>
     <use xlink:href="#DejaVuSans-61" transform="translate(210.742188 0)"/>
     <use xlink:href="#DejaVuSans-73" transform="translate(272.021484 0)"/>
     <use xlink:href="#DejaVuSans-32" transform="translate(324.121094 0)"/>
    </g>
    <!-- 10kΩ -->
    <g transform="translate(329.076875 146.11625) scale(0.08 -0.08)">
     <use xlink:href="#DejaVuSans-31"/>
     <use xlink:href="#DejaVuSans-30" transform="translate(63.623047 0)"/>
     <use xlink:href="#DejaVuSans-6b" transform="translate(127.246094 0)"/>
     <use xlink:href="#DejaVuSans-3a9" transform="translate(185.15625 0)"/>
    </g>
   </g>
   <g id="text_13">
    <!-- C_vg -->
    <g transform="translate(220.04 164.5175) scale(0.08 -0.08)">
     <defs>
      <path id="DejaVuSans-76" d="M 191 3500 
L 800 3500 
L 1894 563 
L 2988 3500 
L 3597 3500 
L 2284 0 
L 1503 0 
L 191 3500 
z
" transform="scale(0.015625)"/>
      <path id="DejaVuSans-67" d="M 2906 1791 
Q 2906 2416 2648 2759 
Q 2391 3103 1925 3103 
Q 1463 3103 1205 2759 
Q 947 2416 947 1791 
Q 947 1169 1205 825 
Q 1463 481 1925 481 
Q 2391 481 2648 825 
Q 2906 1169 2906 1791 
z
M 3481 434 
Q 3481 -459 3084 -895 
Q 2688 -1331 1869 -1331 
Q 1566 -1331 1297 -1286 
Q 1028 -1241 775 -1147 
L 775 -588 
Q 1028 -725 1275 -790 
Q 1522 -856 1778 -856 
Q 2344 -856 2625 -561 
Q 2906 -266 2906 331 
L 2906 616 
Q 2728 306 2450 153 
Q 2172 0 1784 0 
Q 1141 0 747 490 
Q 353 981 353 1791 
Q 353 2603 747 3093 
Q 1141 3584 1784 3584 
Q 2172 3584 2450 3431 
Q 2728 3278 2906 2969 
L 2906 3500 
L 3481 3500 
L 3481 434 
z
" transform="scale(0.015625)"/>
     </defs>
     <use xlink:href="#DejaVuSans-43"/>
     <use xlink:href="#DejaVuSans-5f" transform="translate(69.824219 0)"/>
     <use xlink:href="#DejaVuSans-76" transform="translate(119.824219 0)"/>
     <use xlink:href="#DejaVuSans-67" transform="translate(179.003906 0)"/>
    </g>
    <!-- 100µF -->
    <g transform="translate(217.259375 172.4825) scale(0.08 -0.08)">
     <use xlink:href="#DejaVuSans-31"/>
     <use xlink:href="#DejaVuSans-30" transform="translate(63.623047 0)"/>
     <use xlink:href="#DejaVuSans-30" transform="translate(127.246094 0)"/>
     <use xlink:href="#DejaVuSans-b5" transform="translate(190.869141 0)"/>
     <use xlink:href="#DejaVuSans-46" transform="translate(254.492188 0)"/>
    </g>
   </g>
   <g id="patch_2">
    <path d="M 915.54 112.68 
C 916.256048 112.68 916.942866 112.395511 917.449188 111.889188 
C 917.955511 111.382866 918.24 110.696048 918.24 109.98 
C 918.24 109.263952 917.955511 108.577134 917.449188 108.070812 
C 916.942866 107.564489 916.256048 107.28 915.54 107.28 
C 914.823952 107.28 914.137134 107.564489 913.630812 108.070812 
C 913.124489 108.577134 912.84 109.263952 912.84 109.98 
C 912.84 110.696048 913.124489 111.382866 913.630812 111.889188 
C 914.137134 112.395511 914.823952 112.68 915.54 112.68 
z
" clip-path="url(#p578e5bad34)" style="fill: #ffffff; stroke: #000000; stroke-width: 2; stroke-linejoin: miter"/>
   </g>
   <g id="text_14">
    <!-- V_VG Bus (1.65V) -->
    <g transform="translate(579.24875 101.79375) scale(0.08 -0.08)">
     <defs>
      <path id="DejaVuSans-47" d="M 3809 666 
L 3809 1919 
L 2778 1919 
L 2778 2438 
L 4434 2438 
L 4434 434 
Q 4069 175 3628 42 
Q 3188 -91 2688 -91 
Q 1594 -91 976 548 
Q 359 1188 359 2328 
Q 359 3472 976 4111 
Q 1594 4750 2688 4750 
Q 3144 4750 3555 4637 
Q 3966 4525 4313 4306 
L 4313 3634 
Q 3963 3931 3569 4081 
Q 3175 4231 2741 4231 
Q 1884 4231 1454 3753 
Q 1025 3275 1025 2328 
Q 1025 1384 1454 906 
Q 1884 428 2741 428 
Q 3075 428 3337 486 
Q 3600 544 3809 666 
z
" transform="scale(0.015625)"/>
      <path id="DejaVuSans-36" d="M 2113 2584 
Q 1688 2584 1439 2293 
Q 1191 2003 1191 1497 
Q 1191 994 1439 701 
Q 1688 409 2113 409 
Q 2538 409 2786 701 
Q 3034 994 3034 1497 
Q 3034 2003 2786 2293 
Q 2538 2584 2113 2584 
z
M 3366 4563 
L 3366 3988 
Q 3128 4100 2886 4159 
Q 2644 4219 2406 4219 
Q 1781 4219 1451 3797 
Q 1122 3375 1075 2522 
Q 1259 2794 1537 2939 
Q 1816 3084 2150 3084 
Q 2853 3084 3261 2657 
Q 3669 2231 3669 1497 
Q 3669 778 3244 343 
Q 2819 -91 2113 -91 
Q 1303 -91 875 529 
Q 447 1150 447 2328 
Q 447 3434 972 4092 
Q 1497 4750 2381 4750 
Q 2619 4750 2861 4703 
Q 3103 4656 3366 4563 
z
" transform="scale(0.015625)"/>
     </defs>
     <use xlink:href="#DejaVuSans-56"/>
     <use xlink:href="#DejaVuSans-5f" transform="translate(68.408203 0)"/>
     <use xlink:href="#DejaVuSans-56" transform="translate(118.408203 0)"/>
     <use xlink:href="#DejaVuSans-47" transform="translate(186.816406 0)"/>
     <use xlink:href="#DejaVuSans-20" transform="translate(264.306641 0)"/>
     <use xlink:href="#DejaVuSans-42" transform="translate(296.09375 0)"/>
     <use xlink:href="#DejaVuSans-75" transform="translate(364.697266 0)"/>
     <use xlink:href="#DejaVuSans-73" transform="translate(428.076172 0)"/>
     <use xlink:href="#DejaVuSans-20" transform="translate(480.175781 0)"/>
     <use xlink:href="#DejaVuSans-28" transform="translate(511.962891 0)"/>
     <use xlink:href="#DejaVuSans-31" transform="translate(550.976562 0)"/>
     <use xlink:href="#DejaVuSans-2e" transform="translate(614.599609 0)"/>
     <use xlink:href="#DejaVuSans-36" transform="translate(646.386719 0)"/>
     <use xlink:href="#DejaVuSans-35" transform="translate(710.009766 0)"/>
     <use xlink:href="#DejaVuSans-56" transform="translate(773.632812 0)"/>
     <use xlink:href="#DejaVuSans-29" transform="translate(842.041016 0)"/>
    </g>
   </g>
   <g id="text_15">
    <!-- R_vbias1 -->
    <g transform="translate(357.6625 207.205) scale(0.08 -0.08)">
     <use xlink:href="#DejaVuSans-52"/>
     <use xlink:href="#DejaVuSans-5f" transform="translate(69.482422 0)"/>
     <use xlink:href="#DejaVuSans-76" transform="translate(119.482422 0)"/>
     <use xlink:href="#DejaVuSans-62" transform="translate(178.662109 0)"/>
     <use xlink:href="#DejaVuSans-69" transform="translate(242.138672 0)"/>
     <use xlink:href="#DejaVuSans-61" transform="translate(269.921875 0)"/>
     <use xlink:href="#DejaVuSans-73" transform="translate(331.201172 0)"/>
     <use xlink:href="#DejaVuSans-31" transform="translate(383.300781 0)"/>
    </g>
    <!-- 1MΩ -->
    <g transform="translate(366.486875 215.17) scale(0.08 -0.08)">
     <use xlink:href="#DejaVuSans-31"/>
     <use xlink:href="#DejaVuSans-4d" transform="translate(63.623047 0)"/>
     <use xlink:href="#DejaVuSans-3a9" transform="translate(149.902344 0)"/>
    </g>
   </g>
   <g id="text_16">
    <!-- MCP6002A -->
    <g transform="translate(403.018643 290.29625) scale(0.08 -0.08)">
     <use xlink:href="#DejaVuSans-4d"/>
     <use xlink:href="#DejaVuSans-43" transform="translate(86.279297 0)"/>
     <use xlink:href="#DejaVuSans-50" transform="translate(156.103516 0)"/>
     <use xlink:href="#DejaVuSans-36" transform="translate(216.40625 0)"/>
     <use xlink:href="#DejaVuSans-30" transform="translate(280.029297 0)"/>
     <use xlink:href="#DejaVuSans-30" transform="translate(343.652344 0)"/>
     <use xlink:href="#DejaVuSans-32" transform="translate(407.275391 0)"/>
     <use xlink:href="#DejaVuSans-41" transform="translate(470.898438 0)"/>
    </g>
    <!-- Stage 1 -->
    <g transform="translate(409.215518 298.03875) scale(0.08 -0.08)">
     <defs>
      <path id="DejaVuSans-53" d="M 3425 4513 
L 3425 3897 
Q 3066 4069 2747 4153 
Q 2428 4238 2131 4238 
Q 1616 4238 1336 4038 
Q 1056 3838 1056 3469 
Q 1056 3159 1242 3001 
Q 1428 2844 1947 2747 
L 2328 2669 
Q 3034 2534 3370 2195 
Q 3706 1856 3706 1288 
Q 3706 609 3251 259 
Q 2797 -91 1919 -91 
Q 1588 -91 1214 -16 
Q 841 59 441 206 
L 441 856 
Q 825 641 1194 531 
Q 1563 422 1919 422 
Q 2459 422 2753 634 
Q 3047 847 3047 1241 
Q 3047 1584 2836 1778 
Q 2625 1972 2144 2069 
L 1759 2144 
Q 1053 2284 737 2584 
Q 422 2884 422 3419 
Q 422 4038 858 4394 
Q 1294 4750 2059 4750 
Q 2388 4750 2728 4690 
Q 3069 4631 3425 4513 
z
" transform="scale(0.015625)"/>
     </defs>
     <use xlink:href="#DejaVuSans-53"/>
     <use xlink:href="#DejaVuSans-74" transform="translate(63.476562 0)"/>
     <use xlink:href="#DejaVuSans-61" transform="translate(102.685547 0)"/>
     <use xlink:href="#DejaVuSans-67" transform="translate(163.964844 0)"/>
     <use xlink:href="#DejaVuSans-65" transform="translate(227.441406 0)"/>
     <use xlink:href="#DejaVuSans-20" transform="translate(288.964844 0)"/>
     <use xlink:href="#DejaVuSans-31" transform="translate(320.751953 0)"/>
    </g>
   </g>
   <g id="text_17">
    <!-- Rg1 10kΩ -->
    <g transform="translate(316.341875 353.65875) scale(0.08 -0.08)">
     <use xlink:href="#DejaVuSans-52"/>
     <use xlink:href="#DejaVuSans-67" transform="translate(69.482422 0)"/>
     <use xlink:href="#DejaVuSans-31" transform="translate(132.958984 0)"/>
     <use xlink:href="#DejaVuSans-20" transform="translate(196.582031 0)"/>
     <use xlink:href="#DejaVuSans-31" transform="translate(228.369141 0)"/>
     <use xlink:href="#DejaVuSans-30" transform="translate(291.992188 0)"/>
     <use xlink:href="#DejaVuSans-6b" transform="translate(355.615234 0)"/>
     <use xlink:href="#DejaVuSans-3a9" transform="translate(413.525391 0)"/>
    </g>
    <!-- C_g1 100µF -->
    <g transform="translate(312.310625 361.40125) scale(0.08 -0.08)">
     <use xlink:href="#DejaVuSans-43"/>
     <use xlink:href="#DejaVuSans-5f" transform="translate(69.824219 0)"/>
     <use xlink:href="#DejaVuSans-67" transform="translate(119.824219 0)"/>
     <use xlink:href="#DejaVuSans-31" transform="translate(183.300781 0)"/>
     <use xlink:href="#DejaVuSans-20" transform="translate(246.923828 0)"/>
     <use xlink:href="#DejaVuSans-31" transform="translate(278.710938 0)"/>
     <use xlink:href="#DejaVuSans-30" transform="translate(342.333984 0)"/>
     <use xlink:href="#DejaVuSans-30" transform="translate(405.957031 0)"/>
     <use xlink:href="#DejaVuSans-b5" transform="translate(469.580078 0)"/>
     <use xlink:href="#DejaVuSans-46" transform="translate(533.203125 0)"/>
    </g>
    <!-- (+ up) -->
    <g transform="translate(323.12125 369.36625) scale(0.08 -0.08)">
     <defs>
      <path id="DejaVuSans-2b" d="M 2944 4013 
L 2944 2272 
L 4684 2272 
L 4684 1741 
L 2944 1741 
L 2944 0 
L 2419 0 
L 2419 1741 
L 678 1741 
L 678 2272 
L 2419 2272 
L 2419 4013 
L 2944 4013 
z
" transform="scale(0.015625)"/>
      <path id="DejaVuSans-70" d="M 1159 525 
L 1159 -1331 
L 581 -1331 
L 581 3500 
L 1159 3500 
L 1159 2969 
Q 1341 3281 1617 3432 
Q 1894 3584 2278 3584 
Q 2916 3584 3314 3078 
Q 3713 2572 3713 1747 
Q 3713 922 3314 415 
Q 2916 -91 2278 -91 
Q 1894 -91 1617 61 
Q 1341 213 1159 525 
z
M 3116 1747 
Q 3116 2381 2855 2742 
Q 2594 3103 2138 3103 
Q 1681 3103 1420 2742 
Q 1159 2381 1159 1747 
Q 1159 1113 1420 752 
Q 1681 391 2138 391 
Q 2594 391 2855 752 
Q 3116 1113 3116 1747 
z
" transform="scale(0.015625)"/>
     </defs>
     <use xlink:href="#DejaVuSans-28"/>
     <use xlink:href="#DejaVuSans-2b" transform="translate(39.013672 0)"/>
     <use xlink:href="#DejaVuSans-20" transform="translate(122.802734 0)"/>
     <use xlink:href="#DejaVuSans-75" transform="translate(154.589844 0)"/>
     <use xlink:href="#DejaVuSans-70" transform="translate(217.96875 0)"/>
     <use xlink:href="#DejaVuSans-29" transform="translate(281.445312 0)"/>
    </g>
   </g>
   <g id="text_18">
    <!-- Rf1 -->
    <g transform="translate(421.9075 249.25875) scale(0.08 -0.08)">
     <defs>
      <path id="DejaVuSans-66" d="M 2375 4863 
L 2375 4384 
L 1825 4384 
Q 1516 4384 1395 4259 
Q 1275 4134 1275 3809 
L 1275 3500 
L 2222 3500 
L 2222 3053 
L 1275 3053 
L 1275 0 
L 697 0 
L 697 3053 
L 147 3053 
L 147 3500 
L 697 3500 
L 697 3744 
Q 697 4328 969 4595 
Q 1241 4863 1831 4863 
L 2375 4863 
z
" transform="scale(0.015625)"/>
     </defs>
     <use xlink:href="#DejaVuSans-52"/>
     <use xlink:href="#DejaVuSans-66" transform="translate(69.482422 0)"/>
     <use xlink:href="#DejaVuSans-31" transform="translate(104.6875 0)"/>
    </g>
    <!-- 100kΩ -->
    <g transform="translate(415.631875 257.00125) scale(0.08 -0.08)">
     <use xlink:href="#DejaVuSans-31"/>
     <use xlink:href="#DejaVuSans-30" transform="translate(63.623047 0)"/>
     <use xlink:href="#DejaVuSans-30" transform="translate(127.246094 0)"/>
     <use xlink:href="#DejaVuSans-6b" transform="translate(190.869141 0)"/>
     <use xlink:href="#DejaVuSans-3a9" transform="translate(248.779297 0)"/>
    </g>
   </g>
   <g id="text_19">
    <!-- C_lpf1 -->
    <g transform="translate(416.243125 186.03125) scale(0.08 -0.08)">
     <use xlink:href="#DejaVuSans-43"/>
     <use xlink:href="#DejaVuSans-5f" transform="translate(69.824219 0)"/>
     <use xlink:href="#DejaVuSans-6c" transform="translate(119.824219 0)"/>
     <use xlink:href="#DejaVuSans-70" transform="translate(147.607422 0)"/>
     <use xlink:href="#DejaVuSans-66" transform="translate(211.083984 0)"/>
     <use xlink:href="#DejaVuSans-31" transform="translate(246.289062 0)"/>
    </g>
    <!-- 22nF ("223") -->
    <g transform="translate(403.006875 193.99625) scale(0.08 -0.08)">
     <use xlink:href="#DejaVuSans-32"/>
     <use xlink:href="#DejaVuSans-32" transform="translate(63.623047 0)"/>
     <use xlink:href="#DejaVuSans-6e" transform="translate(127.246094 0)"/>
     <use xlink:href="#DejaVuSans-46" transform="translate(190.625 0)"/>
     <use xlink:href="#DejaVuSans-20" transform="translate(248.144531 0)"/>
     <use xlink:href="#DejaVuSans-28" transform="translate(279.931641 0)"/>
     <use xlink:href="#DejaVuSans-22" transform="translate(318.945312 0)"/>
     <use xlink:href="#DejaVuSans-32" transform="translate(364.941406 0)"/>
     <use xlink:href="#DejaVuSans-32" transform="translate(428.564453 0)"/>
     <use xlink:href="#DejaVuSans-33" transform="translate(492.1875 0)"/>
     <use xlink:href="#DejaVuSans-22" transform="translate(555.810547 0)"/>
     <use xlink:href="#DejaVuSans-29" transform="translate(601.806641 0)"/>
    </g>
   </g>
   <g id="text_20">
    <!-- C2 -->
    <g transform="translate(521.944161 270.67375) scale(0.08 -0.08)">
     <use xlink:href="#DejaVuSans-43"/>
     <use xlink:href="#DejaVuSans-32" transform="translate(69.824219 0)"/>
    </g>
    <!-- 1µF ("105") -->
    <g transform="translate(504.184161 278.41625) scale(0.08 -0.08)">
     <use xlink:href="#DejaVuSans-31"/>
     <use xlink:href="#DejaVuSans-b5" transform="translate(63.623047 0)"/>
     <use xlink:href="#DejaVuSans-46" transform="translate(127.246094 0)"/>
     <use xlink:href="#DejaVuSans-20" transform="translate(184.765625 0)"/>
     <use xlink:href="#DejaVuSans-28" transform="translate(216.552734 0)"/>
     <use xlink:href="#DejaVuSans-22" transform="translate(255.566406 0)"/>
     <use xlink:href="#DejaVuSans-31" transform="translate(301.5625 0)"/>
     <use xlink:href="#DejaVuSans-30" transform="translate(365.185547 0)"/>
     <use xlink:href="#DejaVuSans-35" transform="translate(428.808594 0)"/>
     <use xlink:href="#DejaVuSans-22" transform="translate(492.431641 0)"/>
     <use xlink:href="#DejaVuSans-29" transform="translate(538.427734 0)"/>
    </g>
   </g>
   <g id="text_21">
    <!-- R_vbias2 -->
    <g transform="translate(543.604786 148.45875) scale(0.08 -0.08)">
     <use xlink:href="#DejaVuSans-52"/>
     <use xlink:href="#DejaVuSans-5f" transform="translate(69.482422 0)"/>
     <use xlink:href="#DejaVuSans-76" transform="translate(119.482422 0)"/>
     <use xlink:href="#DejaVuSans-62" transform="translate(178.662109 0)"/>
     <use xlink:href="#DejaVuSans-69" transform="translate(242.138672 0)"/>
     <use xlink:href="#DejaVuSans-61" transform="translate(269.921875 0)"/>
     <use xlink:href="#DejaVuSans-73" transform="translate(331.201172 0)"/>
     <use xlink:href="#DejaVuSans-32" transform="translate(383.300781 0)"/>
    </g>
    <!-- 1MΩ -->
    <g transform="translate(552.429161 156.42375) scale(0.08 -0.08)">
     <use xlink:href="#DejaVuSans-31"/>
     <use xlink:href="#DejaVuSans-4d" transform="translate(63.623047 0)"/>
     <use xlink:href="#DejaVuSans-3a9" transform="translate(149.902344 0)"/>
    </g>
   </g>
   <g id="text_22">
    <!-- MCP6002B -->
    <g transform="translate(664.552805 267.79625) scale(0.08 -0.08)">
     <use xlink:href="#DejaVuSans-4d"/>
     <use xlink:href="#DejaVuSans-43" transform="translate(86.279297 0)"/>
     <use xlink:href="#DejaVuSans-50" transform="translate(156.103516 0)"/>
     <use xlink:href="#DejaVuSans-36" transform="translate(216.40625 0)"/>
     <use xlink:href="#DejaVuSans-30" transform="translate(280.029297 0)"/>
     <use xlink:href="#DejaVuSans-30" transform="translate(343.652344 0)"/>
     <use xlink:href="#DejaVuSans-32" transform="translate(407.275391 0)"/>
     <use xlink:href="#DejaVuSans-42" transform="translate(470.898438 0)"/>
    </g>
    <!-- Stage 2 -->
    <g transform="translate(670.757805 275.53875) scale(0.08 -0.08)">
     <use xlink:href="#DejaVuSans-53"/>
     <use xlink:href="#DejaVuSans-74" transform="translate(63.476562 0)"/>
     <use xlink:href="#DejaVuSans-61" transform="translate(102.685547 0)"/>
     <use xlink:href="#DejaVuSans-67" transform="translate(163.964844 0)"/>
     <use xlink:href="#DejaVuSans-65" transform="translate(227.441406 0)"/>
     <use xlink:href="#DejaVuSans-20" transform="translate(288.964844 0)"/>
     <use xlink:href="#DejaVuSans-32" transform="translate(320.751953 0)"/>
    </g>
   </g>
   <g id="text_23">
    <!-- Rg2 10kΩ -->
    <g transform="translate(586.884161 331.15875) scale(0.08 -0.08)">
     <use xlink:href="#DejaVuSans-52"/>
     <use xlink:href="#DejaVuSans-67" transform="translate(69.482422 0)"/>
     <use xlink:href="#DejaVuSans-32" transform="translate(132.958984 0)"/>
     <use xlink:href="#DejaVuSans-20" transform="translate(196.582031 0)"/>
     <use xlink:href="#DejaVuSans-31" transform="translate(228.369141 0)"/>
     <use xlink:href="#DejaVuSans-30" transform="translate(291.992188 0)"/>
     <use xlink:href="#DejaVuSans-6b" transform="translate(355.615234 0)"/>
     <use xlink:href="#DejaVuSans-3a9" transform="translate(413.525391 0)"/>
    </g>
    <!-- C_g2 100µF -->
    <g transform="translate(582.852911 338.90125) scale(0.08 -0.08)">
     <use xlink:href="#DejaVuSans-43"/>
     <use xlink:href="#DejaVuSans-5f" transform="translate(69.824219 0)"/>
     <use xlink:href="#DejaVuSans-67" transform="translate(119.824219 0)"/>
     <use xlink:href="#DejaVuSans-32" transform="translate(183.300781 0)"/>
     <use xlink:href="#DejaVuSans-20" transform="translate(246.923828 0)"/>
     <use xlink:href="#DejaVuSans-31" transform="translate(278.710938 0)"/>
     <use xlink:href="#DejaVuSans-30" transform="translate(342.333984 0)"/>
     <use xlink:href="#DejaVuSans-30" transform="translate(405.957031 0)"/>
     <use xlink:href="#DejaVuSans-b5" transform="translate(469.580078 0)"/>
     <use xlink:href="#DejaVuSans-46" transform="translate(533.203125 0)"/>
    </g>
    <!-- (+ up) -->
    <g transform="translate(593.663536 346.86625) scale(0.08 -0.08)">
     <use xlink:href="#DejaVuSans-28"/>
     <use xlink:href="#DejaVuSans-2b" transform="translate(39.013672 0)"/>
     <use xlink:href="#DejaVuSans-20" transform="translate(122.802734 0)"/>
     <use xlink:href="#DejaVuSans-75" transform="translate(154.589844 0)"/>
     <use xlink:href="#DejaVuSans-70" transform="translate(217.96875 0)"/>
     <use xlink:href="#DejaVuSans-29" transform="translate(281.445312 0)"/>
    </g>
   </g>
   <g id="text_24">
    <!-- Rf2 -->
    <g transform="translate(683.449786 226.75875) scale(0.08 -0.08)">
     <use xlink:href="#DejaVuSans-52"/>
     <use xlink:href="#DejaVuSans-66" transform="translate(69.482422 0)"/>
     <use xlink:href="#DejaVuSans-32" transform="translate(104.6875 0)"/>
    </g>
    <!-- 100kΩ -->
    <g transform="translate(677.174161 234.50125) scale(0.08 -0.08)">
     <use xlink:href="#DejaVuSans-31"/>
     <use xlink:href="#DejaVuSans-30" transform="translate(63.623047 0)"/>
     <use xlink:href="#DejaVuSans-30" transform="translate(127.246094 0)"/>
     <use xlink:href="#DejaVuSans-6b" transform="translate(190.869141 0)"/>
     <use xlink:href="#DejaVuSans-3a9" transform="translate(248.779297 0)"/>
    </g>
   </g>
   <g id="text_25">
    <!-- C_lpf2 -->
    <g transform="translate(677.785411 163.53125) scale(0.08 -0.08)">
     <use xlink:href="#DejaVuSans-43"/>
     <use xlink:href="#DejaVuSans-5f" transform="translate(69.824219 0)"/>
     <use xlink:href="#DejaVuSans-6c" transform="translate(119.824219 0)"/>
     <use xlink:href="#DejaVuSans-70" transform="translate(147.607422 0)"/>
     <use xlink:href="#DejaVuSans-66" transform="translate(211.083984 0)"/>
     <use xlink:href="#DejaVuSans-32" transform="translate(246.289062 0)"/>
    </g>
    <!-- 22nF ("223") -->
    <g transform="translate(664.549161 171.49625) scale(0.08 -0.08)">
     <use xlink:href="#DejaVuSans-32"/>
     <use xlink:href="#DejaVuSans-32" transform="translate(63.623047 0)"/>
     <use xlink:href="#DejaVuSans-6e" transform="translate(127.246094 0)"/>
     <use xlink:href="#DejaVuSans-46" transform="translate(190.625 0)"/>
     <use xlink:href="#DejaVuSans-20" transform="translate(248.144531 0)"/>
     <use xlink:href="#DejaVuSans-28" transform="translate(279.931641 0)"/>
     <use xlink:href="#DejaVuSans-22" transform="translate(318.945312 0)"/>
     <use xlink:href="#DejaVuSans-32" transform="translate(364.941406 0)"/>
     <use xlink:href="#DejaVuSans-32" transform="translate(428.564453 0)"/>
     <use xlink:href="#DejaVuSans-33" transform="translate(492.1875 0)"/>
     <use xlink:href="#DejaVuSans-22" transform="translate(555.810547 0)"/>
     <use xlink:href="#DejaVuSans-29" transform="translate(601.806641 0)"/>
    </g>
   </g>
   <g id="text_26">
    <!-- R_out -->
    <g transform="translate(777.494573 247.95125) scale(0.08 -0.08)">
     <use xlink:href="#DejaVuSans-52"/>
     <use xlink:href="#DejaVuSans-5f" transform="translate(69.482422 0)"/>
     <use xlink:href="#DejaVuSans-6f" transform="translate(119.482422 0)"/>
     <use xlink:href="#DejaVuSans-75" transform="translate(180.664062 0)"/>
     <use xlink:href="#DejaVuSans-74" transform="translate(244.042969 0)"/>
    </g>
    <!-- 1kΩ -->
    <g transform="translate(780.906448 255.91625) scale(0.08 -0.08)">
     <use xlink:href="#DejaVuSans-31"/>
     <use xlink:href="#DejaVuSans-6b" transform="translate(63.623047 0)"/>
     <use xlink:href="#DejaVuSans-3a9" transform="translate(121.533203 0)"/>
    </g>
   </g>
   <g id="text_27">
    <!-- ESP32 -->
    <g transform="translate(873.455823 264.91625) scale(0.08 -0.08)">
     <defs>
      <path id="DejaVuSans-45" d="M 628 4666 
L 3578 4666 
L 3578 4134 
L 1259 4134 
L 1259 2753 
L 3481 2753 
L 3481 2222 
L 1259 2222 
L 1259 531 
L 3634 531 
L 3634 0 
L 628 0 
L 628 4666 
z
" transform="scale(0.015625)"/>
     </defs>
     <use xlink:href="#DejaVuSans-45"/>
     <use xlink:href="#DejaVuSans-53" transform="translate(63.183594 0)"/>
     <use xlink:href="#DejaVuSans-50" transform="translate(126.660156 0)"/>
     <use xlink:href="#DejaVuSans-33" transform="translate(186.962891 0)"/>
     <use xlink:href="#DejaVuSans-32" transform="translate(250.585938 0)"/>
    </g>
    <!-- Module -->
    <g transform="translate(871.478948 272.65875) scale(0.08 -0.08)">
     <use xlink:href="#DejaVuSans-4d"/>
     <use xlink:href="#DejaVuSans-6f" transform="translate(86.279297 0)"/>
     <use xlink:href="#DejaVuSans-64" transform="translate(147.460938 0)"/>
     <use xlink:href="#DejaVuSans-75" transform="translate(210.9375 0)"/>
     <use xlink:href="#DejaVuSans-6c" transform="translate(274.316406 0)"/>
     <use xlink:href="#DejaVuSans-65" transform="translate(302.099609 0)"/>
    </g>
   </g>
   <g id="text_28">
    <!-- GPIO 33 -->
    <g transform="translate(792.423323 292.45875) scale(0.08 -0.08)">
     <use xlink:href="#DejaVuSans-47"/>
     <use xlink:href="#DejaVuSans-50" transform="translate(77.490234 0)"/>
     <use xlink:href="#DejaVuSans-49" transform="translate(137.792969 0)"/>
     <use xlink:href="#DejaVuSans-4f" transform="translate(167.285156 0)"/>
     <use xlink:href="#DejaVuSans-20" transform="translate(245.996094 0)"/>
     <use xlink:href="#DejaVuSans-33" transform="translate(277.783203 0)"/>
     <use xlink:href="#DejaVuSans-33" transform="translate(341.40625 0)"/>
    </g>
    <!-- (ADC1_CH5) -->
    <g transform="translate(784.002698 300.20125) scale(0.08 -0.08)">
     <use xlink:href="#DejaVuSans-28"/>
     <use xlink:href="#DejaVuSans-41" transform="translate(39.013672 0)"/>
     <use xlink:href="#DejaVuSans-44" transform="translate(107.421875 0)"/>
     <use xlink:href="#DejaVuSans-43" transform="translate(184.423828 0)"/>
     <use xlink:href="#DejaVuSans-31" transform="translate(254.248047 0)"/>
     <use xlink:href="#DejaVuSans-5f" transform="translate(317.871094 0)"/>
     <use xlink:href="#DejaVuSans-43" transform="translate(367.871094 0)"/>
     <use xlink:href="#DejaVuSans-48" transform="translate(437.695312 0)"/>
     <use xlink:href="#DejaVuSans-35" transform="translate(512.890625 0)"/>
     <use xlink:href="#DejaVuSans-29" transform="translate(576.513672 0)"/>
    </g>
   </g>
   <g id="text_29">
    <!-- MCP6002 supply: -->
    <g transform="translate(738.283323 170.00875) scale(0.08 -0.08)">
     <defs>
      <path id="DejaVuSans-79" d="M 2059 -325 
Q 1816 -950 1584 -1140 
Q 1353 -1331 966 -1331 
L 506 -1331 
L 506 -850 
L 844 -850 
Q 1081 -850 1212 -737 
Q 1344 -625 1503 -206 
L 1606 56 
L 191 3500 
L 800 3500 
L 1894 763 
L 2988 3500 
L 3597 3500 
L 2059 -325 
z
" transform="scale(0.015625)"/>
      <path id="DejaVuSans-3a" d="M 750 794 
L 1409 794 
L 1409 0 
L 750 0 
L 750 794 
z
M 750 3309 
L 1409 3309 
L 1409 2516 
L 750 2516 
L 750 3309 
z
" transform="scale(0.015625)"/>
     </defs>
     <use xlink:href="#DejaVuSans-4d"/>
     <use xlink:href="#DejaVuSans-43" transform="translate(86.279297 0)"/>
     <use xlink:href="#DejaVuSans-50" transform="translate(156.103516 0)"/>
     <use xlink:href="#DejaVuSans-36" transform="translate(216.40625 0)"/>
     <use xlink:href="#DejaVuSans-30" transform="translate(280.029297 0)"/>
     <use xlink:href="#DejaVuSans-30" transform="translate(343.652344 0)"/>
     <use xlink:href="#DejaVuSans-32" transform="translate(407.275391 0)"/>
     <use xlink:href="#DejaVuSans-20" transform="translate(470.898438 0)"/>
     <use xlink:href="#DejaVuSans-73" transform="translate(502.685547 0)"/>
     <use xlink:href="#DejaVuSans-75" transform="translate(554.785156 0)"/>
     <use xlink:href="#DejaVuSans-70" transform="translate(618.164062 0)"/>
     <use xlink:href="#DejaVuSans-70" transform="translate(681.640625 0)"/>
     <use xlink:href="#DejaVuSans-6c" transform="translate(745.117188 0)"/>
     <use xlink:href="#DejaVuSans-79" transform="translate(772.900391 0)"/>
     <use xlink:href="#DejaVuSans-3a" transform="translate(824.830078 0)"/>
    </g>
    <!-- Pin 8 → 3.3V_ANA -->
    <g transform="translate(737.383323 177.75125) scale(0.08 -0.08)">
     <defs>
      <path id="DejaVuSans-38" d="M 2034 2216 
Q 1584 2216 1326 1975 
Q 1069 1734 1069 1313 
Q 1069 891 1326 650 
Q 1584 409 2034 409 
Q 2484 409 2743 651 
Q 3003 894 3003 1313 
Q 3003 1734 2745 1975 
Q 2488 2216 2034 2216 
z
M 1403 2484 
Q 997 2584 770 2862 
Q 544 3141 544 3541 
Q 544 4100 942 4425 
Q 1341 4750 2034 4750 
Q 2731 4750 3128 4425 
Q 3525 4100 3525 3541 
Q 3525 3141 3298 2862 
Q 3072 2584 2669 2484 
Q 3125 2378 3379 2068 
Q 3634 1759 3634 1313 
Q 3634 634 3220 271 
Q 2806 -91 2034 -91 
Q 1263 -91 848 271 
Q 434 634 434 1313 
Q 434 1759 690 2068 
Q 947 2378 1403 2484 
z
M 1172 3481 
Q 1172 3119 1398 2916 
Q 1625 2713 2034 2713 
Q 2441 2713 2670 2916 
Q 2900 3119 2900 3481 
Q 2900 3844 2670 4047 
Q 2441 4250 2034 4250 
Q 1625 4250 1398 4047 
Q 1172 3844 1172 3481 
z
" transform="scale(0.015625)"/>
      <path id="DejaVuSans-2192" d="M 5050 2147 
L 5050 1866 
L 3822 638 
L 3447 1013 
L 4175 1741 
L 366 1741 
L 366 2272 
L 4175 2272 
L 3447 3000 
L 3822 3375 
L 5050 2147 
z
" transform="scale(0.015625)"/>
     </defs>
     <use xlink:href="#DejaVuSans-50"/>
     <use xlink:href="#DejaVuSans-69" transform="translate(58.052734 0)"/>
     <use xlink:href="#DejaVuSans-6e" transform="translate(85.835938 0)"/>
     <use xlink:href="#DejaVuSans-20" transform="translate(149.214844 0)"/>
     <use xlink:href="#DejaVuSans-38" transform="translate(181.001953 0)"/>
     <use xlink:href="#DejaVuSans-20" transform="translate(244.625 0)"/>
     <use xlink:href="#DejaVuSans-2192" transform="translate(276.412109 0)"/>
     <use xlink:href="#DejaVuSans-20" transform="translate(360.201172 0)"/>
     <use xlink:href="#DejaVuSans-33" transform="translate(391.988281 0)"/>
     <use xlink:href="#DejaVuSans-2e" transform="translate(455.611328 0)"/>
     <use xlink:href="#DejaVuSans-33" transform="translate(487.398438 0)"/>
     <use xlink:href="#DejaVuSans-56" transform="translate(551.021484 0)"/>
     <use xlink:href="#DejaVuSans-5f" transform="translate(619.429688 0)"/>
     <use xlink:href="#DejaVuSans-41" transform="translate(669.429688 0)"/>
     <use xlink:href="#DejaVuSans-4e" transform="translate(737.837891 0)"/>
     <use xlink:href="#DejaVuSans-41" transform="translate(812.642578 0)"/>
    </g>
    <!-- Pin 4 → GND -->
    <g transform="translate(747.773948 185.71625) scale(0.08 -0.08)">
     <defs>
      <path id="DejaVuSans-34" d="M 2419 4116 
L 825 1625 
L 2419 1625 
L 2419 4116 
z
M 2253 4666 
L 3047 4666 
L 3047 1625 
L 3713 1625 
L 3713 1100 
L 3047 1100 
L 3047 0 
L 2419 0 
L 2419 1100 
L 313 1100 
L 313 1709 
L 2253 4666 
z
" transform="scale(0.015625)"/>
     </defs>
     <use xlink:href="#DejaVuSans-50"/>
     <use xlink:href="#DejaVuSans-69" transform="translate(58.052734 0)"/>
     <use xlink:href="#DejaVuSans-6e" transform="translate(85.835938 0)"/>
     <use xlink:href="#DejaVuSans-20" transform="translate(149.214844 0)"/>
     <use xlink:href="#DejaVuSans-34" transform="translate(181.001953 0)"/>
     <use xlink:href="#DejaVuSans-20" transform="translate(244.625 0)"/>
     <use xlink:href="#DejaVuSans-2192" transform="translate(276.412109 0)"/>
     <use xlink:href="#DejaVuSans-20" transform="translate(360.201172 0)"/>
     <use xlink:href="#DejaVuSans-47" transform="translate(391.988281 0)"/>
     <use xlink:href="#DejaVuSans-4e" transform="translate(469.478516 0)"/>
     <use xlink:href="#DejaVuSans-44" transform="translate(544.283203 0)"/>
    </g>
   </g>
   <g id="patch_3">
    <path d="M 56.94 40.68 
C 57.656048 40.68 58.342866 40.395511 58.849188 39.889188 
C 59.355511 39.382866 59.64 38.696048 59.64 37.98 
C 59.64 37.263952 59.355511 36.577134 58.849188 36.070812 
C 58.342866 35.564489 57.656048 35.28 56.94 35.28 
C 56.223952 35.28 55.537134 35.564489 55.030812 36.070812 
C 54.524489 36.577134 54.24 37.263952 54.24 37.98 
C 54.24 38.696048 54.524489 39.382866 55.030812 39.889188 
C 55.537134 40.395511 56.223952 40.68 56.94 40.68 
z
" clip-path="url(#p578e5bad34)" style="stroke: #000000; stroke-width: 2; stroke-linejoin: miter"/>
   </g>
   <g id="text_30">
    <!-- ESP32 5V -->
    <g transform="translate(12.3975 36.31625) scale(0.08 -0.08)">
     <use xlink:href="#DejaVuSans-45"/>
     <use xlink:href="#DejaVuSans-53" transform="translate(63.183594 0)"/>
     <use xlink:href="#DejaVuSans-50" transform="translate(126.660156 0)"/>
     <use xlink:href="#DejaVuSans-33" transform="translate(186.962891 0)"/>
     <use xlink:href="#DejaVuSans-32" transform="translate(250.585938 0)"/>
     <use xlink:href="#DejaVuSans-20" transform="translate(314.208984 0)"/>
     <use xlink:href="#DejaVuSans-35" transform="translate(345.996094 0)"/>
     <use xlink:href="#DejaVuSans-56" transform="translate(409.619141 0)"/>
    </g>
    <!-- (VBUS) -->
    <g transform="translate(22.5025 44.05875) scale(0.08 -0.08)">
     <use xlink:href="#DejaVuSans-28"/>
     <use xlink:href="#DejaVuSans-56" transform="translate(39.013672 0)"/>
     <use xlink:href="#DejaVuSans-42" transform="translate(107.421875 0)"/>
     <use xlink:href="#DejaVuSans-55" transform="translate(176.025391 0)"/>
     <use xlink:href="#DejaVuSans-53" transform="translate(249.21875 0)"/>
     <use xlink:href="#DejaVuSans-29" transform="translate(312.695312 0)"/>
    </g>
   </g>
   <g id="patch_4">
    <path d="M 231.54 40.68 
C 232.256048 40.68 232.942866 40.395511 233.449188 39.889188 
C 233.955511 39.382866 234.24 38.696048 234.24 37.98 
C 234.24 37.263952 233.955511 36.577134 233.449188 36.070812 
C 232.942866 35.564489 232.256048 35.28 231.54 35.28 
C 230.823952 35.28 230.137134 35.564489 229.630812 36.070812 
C 229.124489 36.577134 228.84 37.263952 228.84 37.98 
C 228.84 38.696048 229.124489 39.382866 229.630812 39.889188 
C 230.137134 40.395511 230.823952 40.68 231.54 40.68 
z
" clip-path="url(#p578e5bad34)" style="stroke: #000000; stroke-width: 2; stroke-linejoin: miter"/>
   </g>
   <g id="patch_5">
    <path d="M 310.74 40.68 
C 311.456048 40.68 312.142866 40.395511 312.649188 39.889188 
C 313.155511 39.382866 313.44 38.696048 313.44 37.98 
C 313.44 37.263952 313.155511 36.577134 312.649188 36.070812 
C 312.142866 35.564489 311.456048 35.28 310.74 35.28 
C 310.023952 35.28 309.337134 35.564489 308.830812 36.070812 
C 308.324489 36.577134 308.04 37.263952 308.04 37.98 
C 308.04 38.696048 308.324489 39.382866 308.830812 39.889188 
C 309.337134 40.395511 310.023952 40.68 310.74 40.68 
z
" clip-path="url(#p578e5bad34)" style="stroke: #000000; stroke-width: 2; stroke-linejoin: miter"/>
   </g>
   <g id="patch_6">
    <path d="M 310.74 112.68 
C 311.456048 112.68 312.142866 112.395511 312.649188 111.889188 
C 313.155511 111.382866 313.44 110.696048 313.44 109.98 
C 313.44 109.263952 313.155511 108.577134 312.649188 108.070812 
C 312.142866 107.564489 311.456048 107.28 310.74 107.28 
C 310.023952 107.28 309.337134 107.564489 308.830812 108.070812 
C 308.324489 108.577134 308.04 109.263952 308.04 109.98 
C 308.04 110.696048 308.324489 111.382866 308.830812 111.889188 
C 309.337134 112.395511 310.023952 112.68 310.74 112.68 
z
" clip-path="url(#p578e5bad34)" style="stroke: #000000; stroke-width: 2; stroke-linejoin: miter"/>
   </g>
   <g id="patch_7">
    <path d="M 337.74 317.88 
C 338.456048 317.88 339.142866 317.595511 339.649188 317.089188 
C 340.155511 316.582866 340.44 315.896048 340.44 315.18 
C 340.44 314.463952 340.155511 313.777134 339.649188 313.270812 
C 339.142866 312.764489 338.456048 312.48 337.74 312.48 
C 337.023952 312.48 336.337134 312.764489 335.830812 313.270812 
C 335.324489 313.777134 335.04 314.463952 335.04 315.18 
C 335.04 315.896048 335.324489 316.582866 335.830812 317.089188 
C 336.337134 317.595511 337.023952 317.88 337.74 317.88 
z
" clip-path="url(#p578e5bad34)" style="stroke: #000000; stroke-width: 2; stroke-linejoin: miter"/>
   </g>
   <g id="patch_8">
    <path d="M 366.54 272.88 
C 367.256048 272.88 367.942866 272.595511 368.449188 272.089188 
C 368.955511 271.582866 369.24 270.896048 369.24 270.18 
C 369.24 269.463952 368.955511 268.777134 368.449188 268.270812 
C 367.942866 267.764489 367.256048 267.48 366.54 267.48 
C 365.823952 267.48 365.137134 267.764489 364.630812 268.270812 
C 364.124489 268.777134 363.84 269.463952 363.84 270.18 
C 363.84 270.896048 364.124489 271.582866 364.630812 272.089188 
C 365.137134 272.595511 365.823952 272.88 366.54 272.88 
z
" clip-path="url(#p578e5bad34)" style="stroke: #000000; stroke-width: 2; stroke-linejoin: miter"/>
   </g>
   <g id="text_31">
    <!-- Pin 2 (-) -->
    <g transform="translate(329 272.3875) scale(0.08 -0.08)">
     <defs>
      <path id="DejaVuSans-2d" d="M 313 2009 
L 1997 2009 
L 1997 1497 
L 313 1497 
L 313 2009 
z
" transform="scale(0.015625)"/>
     </defs>
     <use xlink:href="#DejaVuSans-50"/>
     <use xlink:href="#DejaVuSans-69" transform="translate(58.052734 0)"/>
     <use xlink:href="#DejaVuSans-6e" transform="translate(85.835938 0)"/>
     <use xlink:href="#DejaVuSans-20" transform="translate(149.214844 0)"/>
     <use xlink:href="#DejaVuSans-32" transform="translate(181.001953 0)"/>
     <use xlink:href="#DejaVuSans-20" transform="translate(244.625 0)"/>
     <use xlink:href="#DejaVuSans-28" transform="translate(276.412109 0)"/>
     <use xlink:href="#DejaVuSans-2d" transform="translate(315.425781 0)"/>
     <use xlink:href="#DejaVuSans-29" transform="translate(351.509766 0)"/>
    </g>
   </g>
   <g id="patch_9">
    <path d="M 386.34 233.28 
C 387.056048 233.28 387.742866 232.995511 388.249188 232.489188 
C 388.755511 231.982866 389.04 231.296048 389.04 230.58 
C 389.04 229.863952 388.755511 229.177134 388.249188 228.670812 
C 387.742866 228.164489 387.056048 227.88 386.34 227.88 
C 385.623952 227.88 384.937134 228.164489 384.430812 228.670812 
C 383.924489 229.177134 383.64 229.863952 383.64 230.58 
C 383.64 231.296048 383.924489 231.982866 384.430812 232.489188 
C 384.937134 232.995511 385.623952 233.28 386.34 233.28 
z
" clip-path="url(#p578e5bad34)" style="stroke: #000000; stroke-width: 2; stroke-linejoin: miter"/>
   </g>
   <g id="patch_10">
    <path d="M 470.94 233.28 
C 471.656048 233.28 472.342866 232.995511 472.849188 232.489188 
C 473.355511 231.982866 473.64 231.296048 473.64 230.58 
C 473.64 229.863952 473.355511 229.177134 472.849188 228.670812 
C 472.342866 228.164489 471.656048 227.88 470.94 227.88 
C 470.223952 227.88 469.537134 228.164489 469.030812 228.670812 
C 468.524489 229.177134 468.24 229.863952 468.24 230.58 
C 468.24 231.296048 468.524489 231.982866 469.030812 232.489188 
C 469.537134 232.995511 470.223952 233.28 470.94 233.28 
z
" clip-path="url(#p578e5bad34)" style="stroke: #000000; stroke-width: 2; stroke-linejoin: miter"/>
   </g>
   <g id="patch_11">
    <path d="M 464.282286 295.38 
C 464.998335 295.38 465.685152 295.095511 466.191475 294.589188 
C 466.697797 294.082866 466.982286 293.396048 466.982286 292.68 
C 466.982286 291.963952 466.697797 291.277134 466.191475 290.770812 
C 465.685152 290.264489 464.998335 289.98 464.282286 289.98 
C 463.566238 289.98 462.879421 290.264489 462.373098 290.770812 
C 461.866775 291.277134 461.582286 291.963952 461.582286 292.68 
C 461.582286 293.396048 461.866775 294.082866 462.373098 294.589188 
C 462.879421 295.095511 463.566238 295.38 464.282286 295.38 
z
" clip-path="url(#p578e5bad34)" style="stroke: #000000; stroke-width: 2; stroke-linejoin: miter"/>
   </g>
   <g id="text_32">
    <!-- Pin 1 -->
    <g transform="translate(454.497911 305.05875) scale(0.08 -0.08)">
     <use xlink:href="#DejaVuSans-50"/>
     <use xlink:href="#DejaVuSans-69" transform="translate(58.052734 0)"/>
     <use xlink:href="#DejaVuSans-6e" transform="translate(85.835938 0)"/>
     <use xlink:href="#DejaVuSans-20" transform="translate(149.214844 0)"/>
     <use xlink:href="#DejaVuSans-31" transform="translate(181.001953 0)"/>
    </g>
   </g>
   <g id="patch_12">
    <path d="M 599.282286 295.38 
C 599.998335 295.38 600.685152 295.095511 601.191475 294.589188 
C 601.697797 294.082866 601.982286 293.396048 601.982286 292.68 
C 601.982286 291.963952 601.697797 291.277134 601.191475 290.770812 
C 600.685152 290.264489 599.998335 289.98 599.282286 289.98 
C 598.566238 289.98 597.879421 290.264489 597.373098 290.770812 
C 596.866775 291.277134 596.582286 291.963952 596.582286 292.68 
C 596.582286 293.396048 596.866775 294.082866 597.373098 294.589188 
C 597.879421 295.095511 598.566238 295.38 599.282286 295.38 
z
" clip-path="url(#p578e5bad34)" style="stroke: #000000; stroke-width: 2; stroke-linejoin: miter"/>
   </g>
   <g id="patch_13">
    <path d="M 628.082286 250.38 
C 628.798335 250.38 629.485152 250.095511 629.991475 249.589188 
C 630.497797 249.082866 630.782286 248.396048 630.782286 247.68 
C 630.782286 246.963952 630.497797 246.277134 629.991475 245.770812 
C 629.485152 245.264489 628.798335 244.98 628.082286 244.98 
C 627.366238 244.98 626.679421 245.264489 626.173098 245.770812 
C 625.666775 246.277134 625.382286 246.963952 625.382286 247.68 
C 625.382286 248.396048 625.666775 249.082866 626.173098 249.589188 
C 626.679421 250.095511 627.366238 250.38 628.082286 250.38 
z
" clip-path="url(#p578e5bad34)" style="stroke: #000000; stroke-width: 2; stroke-linejoin: miter"/>
   </g>
   <g id="text_33">
    <!-- Pin 6 (-) -->
    <g transform="translate(590.542286 249.8875) scale(0.08 -0.08)">
     <use xlink:href="#DejaVuSans-50"/>
     <use xlink:href="#DejaVuSans-69" transform="translate(58.052734 0)"/>
     <use xlink:href="#DejaVuSans-6e" transform="translate(85.835938 0)"/>
     <use xlink:href="#DejaVuSans-20" transform="translate(149.214844 0)"/>
     <use xlink:href="#DejaVuSans-36" transform="translate(181.001953 0)"/>
     <use xlink:href="#DejaVuSans-20" transform="translate(244.625 0)"/>
     <use xlink:href="#DejaVuSans-28" transform="translate(276.412109 0)"/>
     <use xlink:href="#DejaVuSans-2d" transform="translate(315.425781 0)"/>
     <use xlink:href="#DejaVuSans-29" transform="translate(351.509766 0)"/>
    </g>
   </g>
   <g id="patch_14">
    <path d="M 647.882286 210.78 
C 648.598335 210.78 649.285152 210.495511 649.791475 209.989188 
C 650.297797 209.482866 650.582286 208.796048 650.582286 208.08 
C 650.582286 207.363952 650.297797 206.677134 649.791475 206.170812 
C 649.285152 205.664489 648.598335 205.38 647.882286 205.38 
C 647.166238 205.38 646.479421 205.664489 645.973098 206.170812 
C 645.466775 206.677134 645.182286 207.363952 645.182286 208.08 
C 645.182286 208.796048 645.466775 209.482866 645.973098 209.989188 
C 646.479421 210.495511 647.166238 210.78 647.882286 210.78 
z
" clip-path="url(#p578e5bad34)" style="stroke: #000000; stroke-width: 2; stroke-linejoin: miter"/>
   </g>
   <g id="patch_15">
    <path d="M 732.482286 210.78 
C 733.198335 210.78 733.885152 210.495511 734.391475 209.989188 
C 734.897797 209.482866 735.182286 208.796048 735.182286 208.08 
C 735.182286 207.363952 734.897797 206.677134 734.391475 206.170812 
C 733.885152 205.664489 733.198335 205.38 732.482286 205.38 
C 731.766238 205.38 731.079421 205.664489 730.573098 206.170812 
C 730.066775 206.677134 729.782286 207.363952 729.782286 208.08 
C 729.782286 208.796048 730.066775 209.482866 730.573098 209.989188 
C 731.079421 210.495511 731.766238 210.78 732.482286 210.78 
z
" clip-path="url(#p578e5bad34)" style="stroke: #000000; stroke-width: 2; stroke-linejoin: miter"/>
   </g>
   <g id="patch_16">
    <path d="M 725.824573 272.88 
C 726.540621 272.88 727.227438 272.595511 727.733761 272.089188 
C 728.240084 271.582866 728.524573 270.896048 728.524573 270.18 
C 728.524573 269.463952 728.240084 268.777134 727.733761 268.270812 
C 727.227438 267.764489 726.540621 267.48 725.824573 267.48 
C 725.108524 267.48 724.421707 267.764489 723.915384 268.270812 
C 723.409062 268.777134 723.124573 269.463952 723.124573 270.18 
C 723.124573 270.896048 723.409062 271.582866 723.915384 272.089188 
C 724.421707 272.595511 725.108524 272.88 725.824573 272.88 
z
" clip-path="url(#p578e5bad34)" style="stroke: #000000; stroke-width: 2; stroke-linejoin: miter"/>
   </g>
   <g id="text_34">
    <!-- Pin 7 -->
    <g transform="translate(716.040198 282.55875) scale(0.08 -0.08)">
     <use xlink:href="#DejaVuSans-50"/>
     <use xlink:href="#DejaVuSans-69" transform="translate(58.052734 0)"/>
     <use xlink:href="#DejaVuSans-6e" transform="translate(85.835938 0)"/>
     <use xlink:href="#DejaVuSans-20" transform="translate(149.214844 0)"/>
     <use xlink:href="#DejaVuSans-37" transform="translate(181.001953 0)"/>
    </g>
   </g>
   <g id="patch_17">
    <path d="M 824.824573 272.88 
C 825.540621 272.88 826.227438 272.595511 826.733761 272.089188 
C 827.240084 271.582866 827.524573 270.896048 827.524573 270.18 
C 827.524573 269.463952 827.240084 268.777134 826.733761 268.270812 
C 826.227438 267.764489 825.540621 267.48 824.824573 267.48 
C 824.108524 267.48 823.421707 267.764489 822.915384 268.270812 
C 822.409062 268.777134 822.124573 269.463952 822.124573 270.18 
C 822.124573 270.896048 822.409062 271.582866 822.915384 272.089188 
C 823.421707 272.595511 824.108524 272.88 824.824573 272.88 
z
" clip-path="url(#p578e5bad34)" style="stroke: #000000; stroke-width: 2; stroke-linejoin: miter"/>
   </g>
  </g>
 </g>
 <defs>
  <clipPath id="p578e5bad34">
   <rect x="0" y="0" width="935.704573" height="450.9"/>
  </clipPath>
 </defs>
</svg>
